<svg width="74" height="74" viewBox="0 0 74 74" fill="none" xmlns="http://www.w3.org/2000/svg">
<mask id="mask0_14844_2590" style="mask-type:luminance" maskUnits="userSpaceOnUse" x="0" y="-1" width="74" height="75">
<path d="M3.23464e-06 -0.000244141L0 73.9998L74 73.9998L74 -0.000240906L3.23464e-06 -0.000244141Z" fill="white"/>
</mask>
<g mask="url(#mask0_14844_2590)">
<path d="M33.9165 15.4165L33.9165 51.9848L20.4733 40.7923C19.8436 40.269 19.0319 40.0171 18.2165 40.0923C17.4011 40.1674 16.6491 40.5636 16.1258 41.1933C15.6024 41.823 15.3506 42.6346 15.4258 43.45C15.5009 44.2652 15.897 45.0172 16.5265 45.5408L35.0265 60.9573C35.1738 61.0611 35.3283 61.1538 35.489 61.2348C35.6432 61.2348 35.7358 61.2348 35.89 61.4508C36.2436 61.5904 36.6198 61.6635 37 61.6665C37.3802 61.6635 37.7564 61.5904 38.11 61.4508C38.264 61.4508 38.3565 61.4508 38.5108 61.2348C38.6715 61.1538 38.8262 61.0611 38.9733 60.9573L57.4733 45.5408C57.8213 45.2508 58.1012 44.8877 58.2931 44.4775C58.4849 44.067 58.584 43.6195 58.5833 43.1665C58.5847 42.4462 58.3338 41.7478 57.8741 41.1933C57.6153 40.8811 57.2974 40.6228 56.9386 40.4336C56.5799 40.2444 56.1874 40.1279 55.7835 40.0907C55.3797 40.0534 54.9725 40.0964 54.5852 40.2167C54.1979 40.3372 53.8382 40.5328 53.5266 40.7923L40.0832 51.9848L40.0833 15.4165C40.0833 14.5988 39.7583 13.8145 39.1802 13.2363C38.6019 12.658 37.8177 12.3332 37 12.3332C36.1823 12.3332 35.3979 12.658 34.8198 13.2363C34.2414 13.8145 33.9165 14.5988 33.9165 15.4165Z" fill="#F2F2F2"/>
</g>
</svg>
