<svg width="109" height="98" viewBox="0 0 109 98" fill="none" xmlns="http://www.w3.org/2000/svg">
<g clip-path="url(#clip0_14814_75)">
<path fill-rule="evenodd" clip-rule="evenodd" d="M-0.181671 -0.16333C36.1517 -0.16333 72.485 -0.16333 108.818 -0.16333C108.818 32.5033 108.818 65.17 108.818 97.8367C72.485 97.8367 36.1517 97.8367 -0.181671 97.8367C-0.181671 65.17 -0.181671 32.5033 -0.181671 -0.16333Z" fill="#FA281F"/>
<path fill-rule="evenodd" clip-rule="evenodd" d="M54.6817 12.25C54.6341 12.4914 54.6948 12.7092 54.8633 12.9033C63.6793 12.687 72.4599 12.4693 81.205 12.25C81.5233 12.2072 81.7656 12.3161 81.9317 12.5767C80.8693 15.9393 79.9003 19.3148 79.025 22.7033C69.9032 23.3489 60.6988 23.5666 51.4117 23.3567C52.3484 19.6001 53.4384 15.8979 54.6817 12.25Z" fill="#FEFDFD"/>
<path fill-rule="evenodd" clip-rule="evenodd" d="M54.6817 12.25C63.5227 12.25 72.364 12.25 81.205 12.25C72.4599 12.4693 63.6793 12.687 54.8633 12.9033C54.6948 12.7092 54.6341 12.4914 54.6817 12.25Z" fill="#EBFEE8"/>
<path fill-rule="evenodd" clip-rule="evenodd" d="M79.025 22.7033C79.0868 23.1352 78.9658 23.5163 78.6617 23.8467C69.3752 23.7996 60.1709 24.0718 51.0483 24.6633C51.0483 24.2278 51.0483 23.7922 51.0483 23.3567C51.1693 23.3567 51.2907 23.3567 51.4117 23.3567C60.6988 23.5667 69.9032 23.3489 79.025 22.7033Z" fill="#F84133"/>
<path fill-rule="evenodd" clip-rule="evenodd" d="M51.0483 23.3567C51.0483 23.7922 51.0483 24.2278 51.0483 24.6633C50.1139 27.1926 49.3872 29.8059 48.8683 32.5033C48.5399 32.7349 48.4189 33.0616 48.505 33.4833C44.3223 33.3762 40.2043 33.485 36.1517 33.81C35.7883 33.81 35.425 33.81 35.0617 33.81C35.9094 30.3255 36.7574 26.8411 37.605 23.3567C42.086 23.3567 46.5674 23.3567 51.0483 23.3567Z" fill="#FCFBFB"/>
<path fill-rule="evenodd" clip-rule="evenodd" d="M51.0483 24.6633C51.6678 26.7914 51.9098 28.9692 51.775 31.1967C56.7421 31.1422 61.7075 31.1967 66.6717 31.36C60.8594 31.5233 55.0461 31.5778 49.2317 31.5233C49.2317 32.0678 49.2317 32.6122 49.2317 33.1567C55.4083 33.1567 61.585 33.1567 67.7617 33.1567C67.883 34.1337 67.5197 34.8958 66.6717 35.4433C67.0328 34.8442 67.0328 34.2997 66.6717 33.81C60.8009 33.4846 54.8666 33.3755 48.8683 33.4833C48.8683 33.1567 48.8683 32.83 48.8683 32.5033C49.3872 29.8059 50.1139 27.1926 51.0483 24.6633Z" fill="#F53129"/>
<path fill-rule="evenodd" clip-rule="evenodd" d="M36.1517 33.81C40.2043 33.485 44.3223 33.3762 48.505 33.4833C48.505 33.5921 48.505 33.7012 48.505 33.81C48.5675 34.134 48.4461 34.3516 48.1417 34.4633C44.2845 33.8175 40.2879 33.5996 36.1517 33.81Z" fill="#F2B7B9"/>
<path fill-rule="evenodd" clip-rule="evenodd" d="M48.8683 32.5033C48.8683 32.83 48.8683 33.1567 48.8683 33.4833C54.8666 33.3755 60.8009 33.4846 66.6717 33.81C60.616 33.81 54.5607 33.81 48.505 33.81C48.505 33.7012 48.505 33.5921 48.505 33.4833C48.4189 33.0616 48.5399 32.7349 48.8683 32.5033Z" fill="#FD6F65"/>
<path fill-rule="evenodd" clip-rule="evenodd" d="M48.505 33.81C54.5607 33.81 60.616 33.81 66.6716 33.81C67.0328 34.2997 67.0328 34.8442 66.6716 35.4433C65.872 37.6898 65.2663 39.9765 64.855 42.3033C64.4299 43.0057 64.0665 43.7681 63.765 44.59C60.6766 44.6988 57.5883 44.8079 54.5 44.9167C51.2805 44.916 48.1922 44.6981 45.235 44.2633C46.192 41.0107 47.161 37.744 48.1417 34.4633C48.4461 34.3516 48.5675 34.1341 48.505 33.81Z" fill="#FDFDFC"/>
<path fill-rule="evenodd" clip-rule="evenodd" d="M64.855 42.3033C64.9556 43.2664 64.8346 44.1918 64.4916 45.08C58.3488 45.1369 52.2324 45.3002 46.1433 45.57C46.0223 45.4612 45.901 45.3521 45.78 45.2433C45.5227 45.5311 45.2197 45.7487 44.8716 45.8967C44.8716 45.57 44.8716 45.2433 44.8716 44.9167C40.3907 44.9167 35.9094 44.9167 31.4283 44.9167C36.0729 44.673 40.6751 44.4554 45.235 44.2633C48.1921 44.6981 51.2805 44.916 54.5 44.9167C57.5883 44.8079 60.6766 44.6988 63.765 44.59C64.0665 43.7681 64.4299 43.0057 64.855 42.3033Z" fill="#F63334"/>
<path fill-rule="evenodd" clip-rule="evenodd" d="M31.4283 44.9167C35.9094 44.9167 40.3907 44.9167 44.8717 44.9167C44.8717 45.2433 44.8717 45.57 44.8717 45.8967C43.4176 50.6908 41.9643 55.4817 40.5117 60.27C36.2728 60.27 32.0339 60.27 27.795 60.27C27.8691 59.2841 27.9902 58.3041 28.1583 57.33C29.0649 53.1444 30.1549 49.0065 31.4283 44.9167Z" fill="#FDFCFC"/>
<path fill-rule="evenodd" clip-rule="evenodd" d="M28.1583 57.33C27.9902 58.3041 27.8691 59.2841 27.795 60.27C32.0339 60.27 36.2728 60.27 40.5117 60.27C36.0952 60.595 31.6141 60.7041 27.0683 60.5967C26.8959 59.3174 27.2593 58.2287 28.1583 57.33Z" fill="#FEDBCB"/>
<path fill-rule="evenodd" clip-rule="evenodd" d="M26.705 69.09C26.6417 69.8613 26.5206 70.6234 26.3417 71.3767C24.3338 71.2718 22.396 71.3806 20.5283 71.7033C20.1765 72.3916 20.0554 73.1541 20.165 73.99C21.7394 73.99 23.3139 73.99 24.8883 73.99C24.7093 74.7433 24.5882 75.5054 24.525 76.2767C22.6652 76.0797 20.9697 76.2976 19.4383 76.93C19.3135 78.1478 19.0713 79.3457 18.7117 80.5233C17.6478 80.8448 16.5578 80.9536 15.4417 80.85C16.2866 76.9519 17.0132 73.0319 17.6217 69.09C20.6494 69.09 23.6772 69.09 26.705 69.09Z" fill="#FAF6F5"/>
<path fill-rule="evenodd" clip-rule="evenodd" d="M26.705 69.09C27.1651 69.8067 27.1651 70.5691 26.705 71.3767C24.6602 71.7017 22.6013 71.8108 20.5283 71.7033C22.396 71.3806 24.3338 71.2718 26.3417 71.3767C26.5206 70.6234 26.6417 69.8613 26.705 69.09Z" fill="#FB767B"/>
<path fill-rule="evenodd" clip-rule="evenodd" d="M59.405 69.09C59.405 72.9012 59.405 76.7121 59.405 80.5233C58.436 80.5233 57.4673 80.5233 56.4983 80.5233C56.4983 79.6521 56.4983 78.7812 56.4983 77.91C55.3309 77.8087 54.2409 77.9175 53.2283 78.2367C52.9148 78.8642 52.6728 79.5175 52.5017 80.1967C51.2565 80.7445 50.1665 80.6357 49.2317 79.87C50.5749 76.343 52.0282 72.8584 53.5917 69.4167C55.5144 69.0916 57.4521 68.9829 59.405 69.09Z" fill="#F8F9F7"/>
<path fill-rule="evenodd" clip-rule="evenodd" d="M77.935 72.3567C79.514 72.3024 81.0884 72.357 82.6583 72.52C82.8821 72.9773 83.0031 73.4673 83.0217 73.99C82.9908 74.5888 82.7484 75.0242 82.295 75.2967C82.295 75.1879 82.295 75.0788 82.295 74.97C82.243 74.3944 82.3644 73.8499 82.6583 73.3367C80.935 73.2135 79.3607 72.8869 77.935 72.3567Z" fill="#F65849"/>
<path fill-rule="evenodd" clip-rule="evenodd" d="M34.6983 73.01C35.5877 72.6921 36.5568 72.5834 37.605 72.6833C37.7082 73.3089 37.5872 73.8531 37.2417 74.3167C37.2417 73.8812 37.2417 73.4454 37.2417 73.01C36.394 73.01 35.5461 73.01 34.6983 73.01Z" fill="#FC887C"/>
<path fill-rule="evenodd" clip-rule="evenodd" d="M55.045 73.01C54.924 73.8812 54.8026 74.7521 54.6817 75.6233C55.166 75.6233 55.6507 75.6233 56.135 75.6233C56.2513 74.5133 56.1303 73.4242 55.7717 72.3567C55.5235 72.4753 55.2812 72.584 55.045 72.6833C55.1155 71.8954 55.5998 71.5688 56.4983 71.7033C56.4983 73.1188 56.4983 74.5346 56.4983 75.95C55.6419 76.0033 54.7943 75.949 53.955 75.7867C54.2071 74.7985 54.5705 73.8731 55.045 73.01Z" fill="#F04E4E"/>
<path fill-rule="evenodd" clip-rule="evenodd" d="M27.4317 80.1967C27.3783 78.6568 27.4994 77.1322 27.795 75.6233C28.3362 73.2553 28.6996 70.8599 28.885 68.4367C29.975 68.4367 31.065 68.4367 32.155 68.4367C31.4601 71.8023 30.8546 75.1778 30.3383 78.5633C30.8228 78.5633 31.3072 78.5633 31.7917 78.5633C31.7917 79.2167 31.7917 79.87 31.7917 80.5233C30.4726 80.8213 29.1403 80.8758 27.795 80.6867C27.593 80.5616 27.4719 80.3982 27.4317 80.1967Z" fill="#F7F6F5"/>
<path fill-rule="evenodd" clip-rule="evenodd" d="M55.045 73.01C55.045 72.9012 55.045 72.7921 55.045 72.6833C55.2812 72.584 55.5235 72.4752 55.7717 72.3567C56.1303 73.4242 56.2513 74.5133 56.135 75.6233C55.6507 75.6233 55.166 75.6233 54.6817 75.6233C54.8027 74.7521 54.924 73.8812 55.045 73.01Z" fill="#F9291E"/>
<path fill-rule="evenodd" clip-rule="evenodd" d="M66.6717 78.2367C65.6481 78.743 65.1638 78.4163 65.2183 77.2567C65.5006 75.8432 65.743 74.4277 65.945 73.01C64.976 73.01 64.0073 73.01 63.0383 73.01C63.1132 73.9884 62.8712 74.8596 62.3117 75.6233C62.2517 74.529 62.3124 73.4402 62.4933 72.3567C62.8567 72.03 63.22 71.7033 63.5833 71.3767C64.5356 71.8637 65.5653 72.0816 66.6717 72.03C66.3076 73.8218 66.3076 75.8905 66.6717 78.2367Z" fill="#F7473B"/>
<path fill-rule="evenodd" clip-rule="evenodd" d="M77.935 72.3566C79.3607 72.8868 80.9351 73.2135 82.6583 73.3366C82.3644 73.8498 82.2431 74.3944 82.295 74.97C80.4351 74.773 78.7398 74.9909 77.2083 75.6233C77.2083 76.6033 77.2083 77.5833 77.2083 78.5633C78.3964 78.628 79.1231 78.138 79.3883 77.0933C80.3497 76.931 81.3187 76.8764 82.295 76.93C81.5371 80.31 79.2361 81.5621 75.3917 80.6866C74.1985 80.2306 73.5928 79.414 73.575 78.2366C74.2112 75.9758 74.6959 73.6891 75.0283 71.3766C76.0504 70.7968 77.1404 70.5247 78.2983 70.56C77.9692 71.115 77.8482 71.7141 77.935 72.3566Z" fill="#F9F5F4"/>
<path fill-rule="evenodd" clip-rule="evenodd" d="M87.0183 72.6833C92.811 71.9941 94.5669 74.0628 92.2867 78.89C90.3534 80.7076 87.9917 81.3064 85.2017 80.6867C84.4401 80.0549 84.0768 79.2382 84.1117 78.2367C84.1538 77.0215 84.3355 75.8236 84.6567 74.6433C85.1784 73.6823 85.9658 73.0289 87.0183 72.6833Z" fill="#F9F6F4"/>
<path fill-rule="evenodd" clip-rule="evenodd" d="M82.295 74.97C82.295 75.0788 82.295 75.1879 82.295 75.2967C80.5644 75.2072 78.8687 75.3159 77.2083 75.6233C78.7398 74.9909 80.4351 74.773 82.295 74.97Z" fill="#FDA29B"/>
<path fill-rule="evenodd" clip-rule="evenodd" d="M34.6983 73.01C35.5461 73.01 36.394 73.01 37.2417 73.01C37.2417 73.4455 37.2417 73.8812 37.2417 74.3167C36.9873 75.7207 36.8664 77.1361 36.8783 78.5633C37.5185 78.6101 38.1242 78.501 38.695 78.2367C39.0591 76.4916 39.4224 74.7495 39.785 73.01C40.754 73.01 41.7227 73.01 42.6917 73.01C42.3338 76.1878 41.7888 79.3454 41.0567 82.4833C39.3425 84.9193 36.9808 85.736 33.9717 84.9333C32.4716 83.4869 32.5927 82.126 34.335 80.85C33.7673 79.9608 33.5251 78.9808 33.6083 77.91C33.5613 76.161 33.9246 74.5277 34.6983 73.01Z" fill="#F9F3F2"/>
<path fill-rule="evenodd" clip-rule="evenodd" d="M24.525 76.2767C22.8668 76.5106 21.1712 76.7284 19.4383 76.93C20.9697 76.2976 22.6652 76.0797 24.525 76.2767Z" fill="#FB7E81"/>
<path fill-rule="evenodd" clip-rule="evenodd" d="M27.795 75.6233C27.4994 77.1322 27.3783 78.6568 27.4317 80.1967C27.1911 79.6074 27.07 78.954 27.0683 78.2367C26.9908 77.2479 27.233 76.377 27.795 75.6233Z" fill="#EB6F62"/>
<path fill-rule="evenodd" clip-rule="evenodd" d="M47.0517 77.91C46.1615 77.844 45.3138 77.9528 44.5083 78.2367C44.7452 77.8365 45.1692 77.6186 45.78 77.5833C46.2832 77.5879 46.7069 77.697 47.0517 77.91Z" fill="#EE7A76"/>
<path fill-rule="evenodd" clip-rule="evenodd" d="M88.1083 74.97C89.3546 74.7266 89.9602 75.1624 89.925 76.2767C89.9646 78.1253 89.0563 78.7786 87.2 78.2367C86.9475 77.014 87.2501 75.9252 88.1083 74.97Z" fill="#FA3328"/>
<path fill-rule="evenodd" clip-rule="evenodd" d="M59.405 69.09C59.7665 72.9519 59.8875 76.8719 59.7683 80.85C58.5573 80.85 57.346 80.85 56.135 80.85C56.135 79.9788 56.135 79.1079 56.135 78.2367C55.166 78.2367 54.1973 78.2367 53.2283 78.2367C54.2409 77.9175 55.3309 77.8087 56.4983 77.91C56.4983 78.7812 56.4983 79.6521 56.4983 80.5233C57.4673 80.5233 58.436 80.5233 59.405 80.5233C59.405 76.7121 59.405 72.9012 59.405 69.09Z" fill="#FBA8A1"/>
<path fill-rule="evenodd" clip-rule="evenodd" d="M47.0517 77.91C47.8488 79.508 47.3038 80.488 45.4167 80.85C43.6563 80.4008 43.3537 79.5296 44.5083 78.2367C45.3138 77.9528 46.1615 77.844 47.0517 77.91Z" fill="#FBF3F2"/>
<path fill-rule="evenodd" clip-rule="evenodd" d="M66.6717 78.2367C67.1258 78.2115 67.4285 77.9936 67.58 77.5833C67.9237 76.0601 68.2264 74.5355 68.4883 73.01C69.4573 73.01 70.426 73.01 71.395 73.01C71.1134 74.8567 70.8711 76.7079 70.6683 78.5633C71.0317 78.5633 71.395 78.5633 71.7583 78.5633C71.7583 79.2167 71.7583 79.87 71.7583 80.5233C70.1208 81.1492 68.6675 80.9313 67.3983 79.87C65.6042 81.1434 63.8478 81.1434 62.13 79.87C61.9792 78.4497 62.0395 77.0342 62.3117 75.6233C62.8712 74.8596 63.1132 73.9884 63.0383 73.01C64.0073 73.01 64.976 73.01 65.945 73.01C65.743 74.4277 65.5006 75.8432 65.2183 77.2567C65.1638 78.4163 65.6482 78.743 66.6717 78.2367Z" fill="#FAF7F6"/>
<path fill-rule="evenodd" clip-rule="evenodd" d="M49.2317 79.87C50.1665 80.6357 51.2565 80.7445 52.5017 80.1967C51.4709 80.818 50.2595 81.0359 48.8683 80.85C48.7822 80.4283 48.9032 80.1016 49.2317 79.87Z" fill="#FB97A3"/>
<path fill-rule="evenodd" clip-rule="evenodd" d="M37.605 80.5233C37.9996 80.5625 38.2419 80.7804 38.3317 81.1766C37.9135 81.7728 37.6711 82.4261 37.605 83.1366C37.1207 83.1366 36.636 83.1366 36.1517 83.1366C35.8879 81.893 36.3722 81.0218 37.605 80.5233Z" fill="#EF4133"/>
</g>
<defs>
<clipPath id="clip0_14814_75">
<rect width="109" height="98" rx="10" fill="white"/>
</clipPath>
</defs>
</svg>
