<svg width="146" height="131" viewBox="0 0 146 131" fill="none" xmlns="http://www.w3.org/2000/svg">
<g clip-path="url(#clip0_14862_338)">
<path fill-rule="evenodd" clip-rule="evenodd" d="M-0.243347 -0.218262C48.4233 -0.218262 97.09 -0.218262 145.757 -0.218262C145.757 43.4484 145.757 87.1151 145.757 130.782C97.09 130.782 48.4233 130.782 -0.243347 130.782C-0.243347 87.1151 -0.243347 43.4484 -0.243347 -0.218262Z" fill="#FA281F"/>
<path fill-rule="evenodd" clip-rule="evenodd" d="M73.2433 16.3749C73.1796 16.6975 73.2609 16.9887 73.4867 17.2482C85.2952 16.9591 97.0564 16.668 108.77 16.3749C109.196 16.3177 109.521 16.4633 109.743 16.8115C108.32 21.3065 107.022 25.8187 105.85 30.3482C93.6318 31.2111 81.303 31.5022 68.8633 31.2215C70.118 26.2 71.578 21.2511 73.2433 16.3749Z" fill="#FEFDFD"/>
<path fill-rule="evenodd" clip-rule="evenodd" d="M73.2433 16.375C85.0854 16.375 96.9279 16.375 108.77 16.375C97.0564 16.6681 85.2951 16.9592 73.4866 17.2483C73.2608 16.9888 73.1796 16.6977 73.2433 16.375Z" fill="#EBFEE8"/>
<path fill-rule="evenodd" clip-rule="evenodd" d="M105.85 30.3484C105.933 30.9257 105.771 31.4351 105.363 31.8767C92.9246 31.8138 80.5959 32.1777 68.3766 32.9684C68.3766 32.3862 68.3766 31.8039 68.3766 31.2217C68.5387 31.2217 68.7013 31.2217 68.8633 31.2217C81.303 31.5024 93.6317 31.2113 105.85 30.3484Z" fill="#F84133"/>
<path fill-rule="evenodd" clip-rule="evenodd" d="M68.3767 31.2217C68.3767 31.8039 68.3767 32.3861 68.3767 32.9683C67.1249 36.3493 66.1516 39.8426 65.4567 43.4483C65.0167 43.7579 64.8546 44.1946 64.97 44.7583C59.3675 44.6151 53.8516 44.7605 48.4233 45.195C47.9367 45.195 47.45 45.195 46.9633 45.195C48.0989 40.5372 49.2346 35.8795 50.37 31.2217C56.372 31.2217 62.3746 31.2217 68.3767 31.2217Z" fill="#FCFBFB"/>
<path fill-rule="evenodd" clip-rule="evenodd" d="M68.3767 32.9683C69.2064 35.8129 69.5306 38.724 69.35 41.7016C76.0032 41.6288 82.654 41.7016 89.3033 41.9199C81.5181 42.1382 73.7315 42.211 65.9433 42.1383C65.9433 42.8661 65.9433 43.5938 65.9433 44.3216C74.2167 44.3216 82.49 44.3216 90.7633 44.3216C90.9259 45.6277 90.4392 46.6464 89.3033 47.3783C89.7871 46.5774 89.7871 45.8495 89.3033 45.1949C81.4398 44.76 73.491 44.6142 65.4567 44.7583C65.4567 44.3216 65.4567 43.8849 65.4567 43.4483C66.1516 39.8425 67.125 36.3492 68.3767 32.9683Z" fill="#F53129"/>
<path fill-rule="evenodd" clip-rule="evenodd" d="M48.4233 45.195C53.8516 44.7606 59.3675 44.6151 64.97 44.7584C64.97 44.9038 64.97 45.0496 64.97 45.195C65.0537 45.6282 64.8912 45.919 64.4833 46.0684C59.3169 45.2051 53.9636 44.9138 48.4233 45.195Z" fill="#F2B7B9"/>
<path fill-rule="evenodd" clip-rule="evenodd" d="M65.4567 43.4482C65.4567 43.8849 65.4567 44.3216 65.4567 44.7582C73.4911 44.6141 81.4398 44.76 89.3034 45.1949C81.1921 45.1949 73.0813 45.1949 64.97 45.1949C64.97 45.0495 64.97 44.9037 64.97 44.7582C64.8547 44.1945 65.0168 43.7578 65.4567 43.4482Z" fill="#FD6F65"/>
<path fill-rule="evenodd" clip-rule="evenodd" d="M64.4977 45.0984C72.6089 45.0984 80.7197 45.0984 88.831 45.0984C89.3148 45.753 89.3148 46.4809 88.831 47.2817C87.7599 50.2847 86.9486 53.3413 86.3977 56.4517C85.8283 57.3906 85.3416 58.4097 84.9377 59.5084C80.801 59.6538 76.6643 59.7996 72.5277 59.9451C68.2153 59.9442 64.0787 59.6529 60.1177 59.0717C61.3996 54.7238 62.6975 50.3572 64.011 45.9717C64.4188 45.8224 64.5814 45.5316 64.4977 45.0984Z" fill="#FDFDFC"/>
<path fill-rule="evenodd" clip-rule="evenodd" d="M86.87 56.5483C87.0048 57.8356 86.8428 59.0727 86.3833 60.26C78.1553 60.336 69.9627 60.5543 61.8067 60.915C61.6446 60.7696 61.4821 60.6237 61.32 60.4783C60.9755 60.863 60.5696 61.1539 60.1033 61.3517C60.1033 60.915 60.1033 60.4783 60.1033 60.0417C54.1013 60.0417 48.0989 60.0417 42.0967 60.0417C48.3179 59.7159 54.4823 59.4251 60.59 59.1683C64.551 59.7495 68.6877 60.0408 73 60.0417C77.1367 59.8963 81.2733 59.7504 85.41 59.605C85.8139 58.5064 86.3006 57.4872 86.87 56.5483Z" fill="#F63334"/>
<path fill-rule="evenodd" clip-rule="evenodd" d="M42.0966 60.0417C48.0989 60.0417 54.1013 60.0417 60.1033 60.0417C60.1033 60.4784 60.1033 60.9151 60.1033 61.3517C58.1557 67.7603 56.209 74.1644 54.2633 80.5651C48.5855 80.5651 42.9078 80.5651 37.23 80.5651C37.3292 79.2472 37.4914 77.9372 37.7166 76.6351C38.9309 71.0401 40.3909 65.5088 42.0966 60.0417Z" fill="#FDFCFC"/>
<path fill-rule="evenodd" clip-rule="evenodd" d="M37.7167 76.635C37.4914 77.9372 37.3292 79.2472 37.23 80.565C42.9078 80.565 48.5855 80.565 54.2633 80.565C48.3477 80.9995 42.3455 81.1453 36.2567 81.0017C36.0257 79.2917 36.5124 77.8363 37.7167 76.635Z" fill="#FEDBCB"/>
<path fill-rule="evenodd" clip-rule="evenodd" d="M35.77 92.355C35.6853 93.386 35.5231 94.4047 35.2833 95.4116C32.5939 95.2715 29.9984 95.4169 27.4967 95.8483C27.0255 96.7684 26.8632 97.7876 27.01 98.905C29.1189 98.905 31.2278 98.905 33.3367 98.905C33.097 99.9119 32.9347 100.931 32.85 101.962C30.359 101.698 28.0878 101.99 26.0367 102.835C25.8695 104.463 25.5451 106.064 25.0633 107.638C23.6383 108.068 22.1783 108.213 20.6833 108.075C21.8151 102.864 22.7884 97.6242 23.6033 92.355C27.6589 92.355 31.7145 92.355 35.77 92.355Z" fill="#FAF6F5"/>
<path fill-rule="evenodd" clip-rule="evenodd" d="M35.77 92.355C36.3863 93.313 36.3863 94.3322 35.77 95.4116C33.0311 95.8461 30.2733 95.992 27.4966 95.8483C29.9984 95.4169 32.5939 95.2715 35.2833 95.4116C35.523 94.4047 35.6852 93.386 35.77 92.355Z" fill="#FB767B"/>
<path fill-rule="evenodd" clip-rule="evenodd" d="M79.57 92.3551C79.57 97.4496 79.57 102.544 79.57 107.638C78.2721 107.638 76.9746 107.638 75.6767 107.638C75.6767 106.474 75.6767 105.31 75.6767 104.145C74.113 104.01 72.653 104.155 71.2967 104.582C70.8767 105.421 70.5526 106.294 70.3234 107.202C68.6556 107.934 67.1956 107.789 65.9434 106.765C67.7426 102.05 69.6892 97.3924 71.7834 92.7917C74.3588 92.3572 76.9542 92.2118 79.57 92.3551Z" fill="#F8F9F7"/>
<path fill-rule="evenodd" clip-rule="evenodd" d="M104.39 96.7217C106.505 96.6492 108.614 96.7221 110.717 96.94C111.016 97.5514 111.179 98.2064 111.203 98.905C111.162 99.7054 110.837 100.288 110.23 100.652C110.23 100.506 110.23 100.36 110.23 100.215C110.16 99.4456 110.323 98.7177 110.717 98.0317C108.408 97.8671 106.3 97.4304 104.39 96.7217Z" fill="#F65849"/>
<path fill-rule="evenodd" clip-rule="evenodd" d="M46.4767 97.595C47.668 97.1701 48.966 97.0247 50.37 97.1583C50.5082 97.9946 50.3462 98.722 49.8834 99.3417C49.8834 98.7596 49.8834 98.1771 49.8834 97.595C48.748 97.595 47.6122 97.595 46.4767 97.595Z" fill="#FC887C"/>
<path fill-rule="evenodd" clip-rule="evenodd" d="M73.73 97.5951C73.568 98.7597 73.4054 99.9239 73.2434 101.088C73.8921 101.088 74.5413 101.088 75.19 101.088C75.3458 99.6047 75.1837 98.1488 74.7034 96.7218C74.371 96.8803 74.0464 97.0257 73.73 97.1585C73.8244 96.1052 74.4732 95.6685 75.6767 95.8485C75.6767 97.7405 75.6767 99.633 75.6767 101.525C74.5296 101.596 73.3942 101.524 72.27 101.307C72.6078 99.9859 73.0944 98.7488 73.73 97.5951Z" fill="#F04E4E"/>
<path fill-rule="evenodd" clip-rule="evenodd" d="M36.7433 107.202C36.6718 105.143 36.834 103.105 37.23 101.088C37.9549 97.923 38.4416 94.7209 38.69 91.4817C40.15 91.4817 41.61 91.4817 43.07 91.4817C42.1392 95.9807 41.3281 100.493 40.6367 105.018C41.2855 105.018 41.9345 105.018 42.5833 105.018C42.5833 105.892 42.5833 106.765 42.5833 107.638C40.8164 108.037 39.032 108.11 37.23 107.857C36.9594 107.689 36.7972 107.471 36.7433 107.202Z" fill="#F7F6F5"/>
<path fill-rule="evenodd" clip-rule="evenodd" d="M73.73 97.595C73.73 97.4496 73.73 97.3038 73.73 97.1583C74.0463 97.0256 74.371 96.8802 74.7033 96.7217C75.1837 98.1487 75.3457 99.6046 75.19 101.088C74.5413 101.088 73.8921 101.088 73.2433 101.088C73.4054 99.9238 73.568 98.7596 73.73 97.595Z" fill="#F9291E"/>
<path fill-rule="evenodd" clip-rule="evenodd" d="M89.3033 104.582C87.9324 105.258 87.2837 104.822 87.3567 103.272C87.7348 101.382 88.0594 99.4901 88.33 97.595C87.0321 97.595 85.7346 97.595 84.4367 97.595C84.5369 98.9028 84.2128 100.067 83.4633 101.088C83.383 99.6255 83.4643 98.17 83.7067 96.7216C84.1933 96.285 84.68 95.8483 85.1667 95.4116C86.4422 96.0627 87.8214 96.3539 89.3033 96.285C88.8157 98.6801 88.8157 101.445 89.3033 104.582Z" fill="#F7473B"/>
<path fill-rule="evenodd" clip-rule="evenodd" d="M104.39 96.7216C106.3 97.4304 108.408 97.867 110.717 98.0316C110.323 98.7176 110.16 99.4456 110.23 100.215C107.739 99.9517 105.468 100.243 103.417 101.088C103.417 102.398 103.417 103.708 103.417 105.018C105.008 105.105 105.981 104.45 106.337 103.053C107.624 102.836 108.922 102.763 110.23 102.835C109.215 107.353 106.133 109.027 100.983 107.857C99.3851 107.247 98.5738 106.155 98.55 104.582C99.4021 101.559 100.051 98.5028 100.497 95.4116C101.866 94.6366 103.326 94.2728 104.877 94.32C104.436 95.0619 104.274 95.8627 104.39 96.7216Z" fill="#F9F5F4"/>
<path fill-rule="evenodd" clip-rule="evenodd" d="M116.557 97.1583C124.316 96.2369 126.668 99.0023 123.613 105.455C121.024 107.885 117.86 108.685 114.123 107.857C113.103 107.012 112.617 105.92 112.663 104.582C112.72 102.957 112.963 101.356 113.393 99.7783C114.092 98.4936 115.147 97.6203 116.557 97.1583Z" fill="#F9F6F4"/>
<path fill-rule="evenodd" clip-rule="evenodd" d="M110.23 100.215C110.23 100.361 110.23 100.506 110.23 100.652C107.912 100.532 105.641 100.678 103.417 101.088C105.468 100.243 107.739 99.9518 110.23 100.215Z" fill="#FDA29B"/>
<path fill-rule="evenodd" clip-rule="evenodd" d="M46.4767 97.595C47.6122 97.595 48.7479 97.595 49.8833 97.595C49.8833 98.177 49.8833 98.7596 49.8833 99.3416C49.5427 101.218 49.3806 103.111 49.3967 105.018C50.2542 105.081 51.0654 104.935 51.83 104.582C52.3176 102.249 52.8043 99.9202 53.29 97.595C54.5879 97.595 55.8854 97.595 57.1833 97.595C56.704 101.843 55.974 106.064 54.9933 110.258C52.6972 113.515 49.5339 114.606 45.5033 113.533C43.494 111.6 43.6563 109.781 45.99 108.075C45.2295 106.886 44.9051 105.576 45.0167 104.145C44.9536 101.807 45.4403 99.6237 46.4767 97.595Z" fill="#F9F3F2"/>
<path fill-rule="evenodd" clip-rule="evenodd" d="M32.85 101.962C30.629 102.274 28.3578 102.566 26.0367 102.835C28.0878 101.99 30.359 101.698 32.85 101.962Z" fill="#FB7E81"/>
<path fill-rule="evenodd" clip-rule="evenodd" d="M37.23 101.088C36.8341 103.105 36.6719 105.143 36.7434 107.202C36.4212 106.414 36.2589 105.541 36.2567 104.582C36.1528 103.26 36.4773 102.096 37.23 101.088Z" fill="#EB6F62"/>
<path fill-rule="evenodd" clip-rule="evenodd" d="M63.0233 104.145C61.831 104.057 60.6956 104.202 59.6166 104.582C59.9339 104.047 60.5019 103.755 61.32 103.708C61.994 103.714 62.5615 103.86 63.0233 104.145Z" fill="#EE7A76"/>
<path fill-rule="evenodd" clip-rule="evenodd" d="M118.017 100.215C119.686 99.8896 120.497 100.472 120.45 101.962C120.503 104.433 119.286 105.306 116.8 104.582C116.462 102.947 116.867 101.492 118.017 100.215Z" fill="#FA3328"/>
<path fill-rule="evenodd" clip-rule="evenodd" d="M79.57 92.355C80.0543 97.5173 80.2163 102.757 80.0567 108.075C78.4346 108.075 76.8121 108.075 75.19 108.075C75.19 106.91 75.19 105.746 75.19 104.582C73.8921 104.582 72.5946 104.582 71.2967 104.582C72.653 104.155 74.113 104.01 75.6767 104.145C75.6767 105.31 75.6767 106.474 75.6767 107.638C76.9746 107.638 78.2721 107.638 79.57 107.638C79.57 102.544 79.57 97.4496 79.57 92.355Z" fill="#FBA8A1"/>
<path fill-rule="evenodd" clip-rule="evenodd" d="M63.0233 104.145C64.0911 106.281 63.3611 107.591 60.8333 108.075C58.4754 107.475 58.07 106.31 59.6167 104.582C60.6956 104.202 61.831 104.057 63.0233 104.145Z" fill="#FBF3F2"/>
<path fill-rule="evenodd" clip-rule="evenodd" d="M89.3034 104.582C89.9117 104.548 90.3171 104.257 90.52 103.708C90.9804 101.672 91.3858 99.6342 91.7367 97.595C93.0346 97.595 94.3321 97.595 95.63 97.595C95.2529 100.063 94.9283 102.538 94.6567 105.018C95.1434 105.018 95.63 105.018 96.1167 105.018C96.1167 105.892 96.1167 106.765 96.1167 107.638C93.9233 108.475 91.9766 108.184 90.2767 106.765C87.8735 108.467 85.521 108.467 83.22 106.765C83.0181 104.866 83.0988 102.974 83.4634 101.088C84.2128 100.067 84.5369 98.9028 84.4367 97.595C85.7346 97.595 87.0321 97.595 88.33 97.595C88.0594 99.4901 87.7348 101.382 87.3567 103.272C87.2837 104.822 87.9324 105.258 89.3034 104.582Z" fill="#FAF7F6"/>
<path fill-rule="evenodd" clip-rule="evenodd" d="M65.9433 106.765C67.1955 107.788 68.6555 107.934 70.3233 107.202C68.9427 108.032 67.3201 108.323 65.4567 108.075C65.3413 107.511 65.5034 107.074 65.9433 106.765Z" fill="#FB97A3"/>
<path fill-rule="evenodd" clip-rule="evenodd" d="M50.37 107.638C50.8985 107.691 51.2231 107.982 51.3433 108.512C50.7832 109.309 50.4586 110.182 50.37 111.132C49.7213 111.132 49.072 111.132 48.4233 111.132C48.07 109.469 48.7187 108.305 50.37 107.638Z" fill="#EF4133"/>
</g>
<defs>
<clipPath id="clip0_14862_338">
<rect width="146" height="131" rx="10" fill="white"/>
</clipPath>
</defs>
</svg>
