<svg width="48" height="47" viewBox="0 0 48 47" fill="none" xmlns="http://www.w3.org/2000/svg">
<g clip-path="url(#clip0_14862_426)">
<path opacity="0.999" fill-rule="evenodd" clip-rule="evenodd" d="M25.5455 46.7925C17.2878 47.1031 10.5504 44.1594 5.33333 37.9614C0.98745 32.2807 -0.507458 25.939 0.84848 18.9362C2.20181 13.1144 5.32302 8.44206 10.2121 4.9192C16.525 0.720787 23.3735 -0.385582 30.7576 1.60015C38.3542 4.01102 43.536 8.88089 46.303 16.2099C48.3898 22.5606 47.8847 28.7048 44.7879 34.6424C41.0816 41.0656 35.5159 45.007 28.0909 46.4665C27.2361 46.5954 26.3876 46.7041 25.5455 46.7925Z" fill="#E42225"/>
<path fill-rule="evenodd" clip-rule="evenodd" d="M14.0303 33.2201C21.0404 33.2201 28.0505 33.2201 35.0606 33.2201C35.2315 33.2052 35.3931 33.2348 35.5455 33.309C35.3435 33.3288 35.1414 33.3486 34.9394 33.3683C27.9495 33.4078 20.9596 33.4078 13.9697 33.3683C13.6734 33.3798 13.4107 33.3008 13.1818 33.1312C13.4569 33.1895 13.7397 33.2191 14.0303 33.2201Z" fill="#E21F22"/>
<path fill-rule="evenodd" clip-rule="evenodd" d="M35.0606 33.22C28.0505 33.22 21.0404 33.22 14.0303 33.22C13.7517 33.1842 13.4891 33.1052 13.2424 32.9829C13.3984 32.962 13.5398 32.9917 13.6667 33.0718C20.8788 33.1113 28.0909 33.1113 35.303 33.0718C35.5157 32.9675 35.7379 32.8984 35.9697 32.8644C35.6847 33.0336 35.3816 33.1521 35.0606 33.22Z" fill="#FDBBBD"/>
<path fill-rule="evenodd" clip-rule="evenodd" d="M13.2424 32.983C13.0665 32.9175 12.8847 32.8484 12.697 32.7756C12.5757 32.6378 12.4343 32.5291 12.2727 32.4496C12.1313 32.2718 11.9697 32.1137 11.7879 31.9754C11.653 31.7322 11.5015 31.4951 11.3333 31.2642C11.3036 31.1876 11.2935 31.1085 11.303 31.0271C11.2593 30.7897 11.2088 30.5526 11.1515 30.3159C11.1111 25.8708 11.1111 21.4256 11.1515 16.9805C11.1905 16.6815 11.241 16.3851 11.303 16.0915C11.303 16.0717 11.303 16.0519 11.303 16.0322C11.4211 15.9243 11.4817 15.786 11.4848 15.6173C11.7456 15.3027 12.0083 14.9866 12.2727 14.669C12.4362 14.6486 12.5574 14.5696 12.6364 14.4319C12.7681 14.4171 12.8691 14.3579 12.9394 14.2541C13.1582 14.1828 13.3804 14.1236 13.6061 14.0763C20.9188 13.9976 28.2319 13.9976 35.5455 14.0763C35.8045 14.183 36.0671 14.2916 36.3333 14.4023C36.4642 14.4813 36.5855 14.5702 36.697 14.669C36.8384 14.8468 37 15.0049 37.1818 15.1432C37.1714 15.202 37.1916 15.2414 37.2424 15.2617C37.2908 15.4079 37.3716 15.5264 37.4848 15.6173C37.5253 15.7358 37.5656 15.8544 37.6061 15.9729C37.6525 16.3087 37.703 16.6446 37.7576 16.9805C37.7879 21.4256 37.798 25.8707 37.7879 30.3159C37.7879 30.474 37.7879 30.632 37.7879 30.7901C37.6548 30.9713 37.5538 31.1689 37.4848 31.3828C37.4242 31.3828 37.3636 31.3828 37.303 31.3828C37.2887 31.5693 37.2382 31.7471 37.1515 31.9162C37.0423 31.9926 36.9716 32.0914 36.9394 32.2125C36.7008 32.5437 36.3776 32.761 35.9697 32.8645C35.7379 32.8985 35.5157 32.9677 35.303 33.0719C28.0909 33.1114 20.8788 33.1114 13.6667 33.0719C13.5398 32.9918 13.3984 32.9621 13.2424 32.983Z" fill="#FEFDFD"/>
<path fill-rule="evenodd" clip-rule="evenodd" d="M12.2727 32.4495C12.0505 32.3507 11.8889 32.1927 11.7879 31.9753C11.9697 32.1136 12.1313 32.2717 12.2727 32.4495Z" fill="#EE7F7E"/>
<path fill-rule="evenodd" clip-rule="evenodd" d="M36.9394 32.2124C36.9716 32.0913 37.0423 31.9925 37.1515 31.9161C37.2382 31.747 37.2887 31.5692 37.303 31.3826C37.3636 31.3826 37.4242 31.3826 37.4848 31.3826C37.4164 31.4902 37.376 31.6088 37.3636 31.7383C37.267 31.9317 37.1256 32.0898 36.9394 32.2124Z" fill="#FBD6D2"/>
<path fill-rule="evenodd" clip-rule="evenodd" d="M37.3636 31.7383C37.376 31.6088 37.4164 31.4902 37.4848 31.3827C37.5538 31.1688 37.6548 30.9712 37.7879 30.79C37.7358 31.0307 37.6651 31.2678 37.5758 31.5012C37.4906 31.5742 37.4199 31.6532 37.3636 31.7383Z" fill="#F69999"/>
<path fill-rule="evenodd" clip-rule="evenodd" d="M15.2424 30.6122C18.1613 30.6912 21.1007 30.7308 24.0606 30.7308C27.0205 30.7308 29.9599 30.6912 32.8788 30.6122C32.9726 30.6313 33.013 30.6905 33 30.79C27.0606 30.79 21.1212 30.79 15.1818 30.79C15.1675 30.7135 15.1876 30.6543 15.2424 30.6122Z" fill="#FEB6B9"/>
<path fill-rule="evenodd" clip-rule="evenodd" d="M15.2424 30.6122C15.2711 30.5288 15.3317 30.4893 15.4242 30.4936C15.3968 30.5504 15.3564 30.5998 15.303 30.6418C18.2121 30.6517 21.1212 30.6615 24.0303 30.6714C26.9599 30.6714 29.869 30.6319 32.7576 30.5529C32.798 30.5726 32.8384 30.5924 32.8788 30.6122C29.9599 30.6912 27.0205 30.7307 24.0606 30.7307C21.1007 30.7307 18.1613 30.6912 15.2424 30.6122Z" fill="#DF595C"/>
<path fill-rule="evenodd" clip-rule="evenodd" d="M15.4242 30.4936C15.4444 30.4936 15.4647 30.4936 15.4848 30.4936C18.2724 30.5726 21.0805 30.6121 23.9091 30.6121C26.7171 30.6022 29.5253 30.5924 32.3333 30.5825C27.203 30.5152 22.0716 30.4657 16.9394 30.4343C22.0518 30.3663 27.1629 30.3564 32.2727 30.4047C32.1328 30.294 31.9712 30.2348 31.7879 30.2269C31.875 30.2139 31.9558 30.1843 32.0303 30.138C31.9481 30.038 31.8673 29.9393 31.7879 29.8416C32.1286 30.0563 32.4518 30.2934 32.7576 30.5528C29.869 30.6319 26.9599 30.6714 24.0303 30.6714C21.1212 30.6615 18.2121 30.6517 15.303 30.6418C15.3564 30.5998 15.3968 30.5504 15.4242 30.4936Z" fill="#E22428"/>
<path fill-rule="evenodd" clip-rule="evenodd" d="M37.7879 30.3159C37.798 25.8707 37.7879 21.4256 37.7576 16.9805C37.703 16.6445 37.6525 16.3087 37.6061 15.9729C37.6869 16.1705 37.7677 16.3681 37.8485 16.5656C37.8687 21.159 37.8484 25.7425 37.7879 30.3159Z" fill="#FBCBCB"/>
<path fill-rule="evenodd" clip-rule="evenodd" d="M37.9091 30.4937C37.9293 25.8409 37.909 21.1983 37.8485 16.5655C37.7677 16.368 37.6869 16.1704 37.6061 15.9728C37.5656 15.8543 37.5253 15.7358 37.4849 15.6172C37.5455 15.6172 37.6061 15.6172 37.6667 15.6172C37.6618 15.8422 37.7527 16.02 37.9394 16.1507C37.9898 20.9416 37.9798 25.7226 37.9091 30.4937Z" fill="#E54145"/>
<path fill-rule="evenodd" clip-rule="evenodd" d="M15.8485 30.1973C15.8932 30.0903 15.9538 29.9915 16.0303 29.9009C16.1472 29.9728 16.2482 29.953 16.3333 29.8417C16.3385 29.9007 16.3183 29.9501 16.2727 29.9898C16.1281 30.0605 15.9867 30.1297 15.8485 30.1973Z" fill="#FBC1BB"/>
<path fill-rule="evenodd" clip-rule="evenodd" d="M37.7879 30.79C37.7879 30.632 37.7879 30.474 37.7879 30.3159C37.8484 25.7424 37.8687 21.159 37.8485 16.5656C37.909 21.1983 37.9293 25.841 37.9091 30.4937C37.8773 30.6007 37.8369 30.6995 37.7879 30.79Z" fill="#ED8285"/>
<path fill-rule="evenodd" clip-rule="evenodd" d="M15.4848 30.4938C15.6085 30.3944 15.7297 30.2956 15.8485 30.1974C15.9867 30.1299 16.1281 30.0607 16.2727 29.99C16.3183 29.9502 16.3385 29.9008 16.3333 29.8418C16.3535 29.8418 16.3738 29.8418 16.3939 29.8418C16.5778 29.752 16.7394 29.6334 16.8788 29.4862C17.2045 29.3467 17.4873 29.1492 17.7273 28.8935C17.9631 28.8009 18.1651 28.6627 18.3333 28.4786C18.4919 28.4024 18.6333 28.3036 18.7576 28.1823C18.8967 28.1446 18.9976 28.0656 19.0606 27.9452C19.2081 27.9587 19.309 27.8994 19.3636 27.7674C19.5376 27.7121 19.679 27.6133 19.7879 27.4711C20.0402 27.3572 20.2624 27.1991 20.4545 26.9969C20.6682 26.9223 20.85 26.8038 21 26.6413C21.1838 26.5515 21.3454 26.4329 21.4848 26.2857C21.9871 25.9802 22.472 25.6444 22.9394 25.2781C23.1299 25.2503 23.2713 25.1515 23.3636 24.9818C23.6683 24.8132 23.9511 24.6156 24.2121 24.3891C24.3659 24.4213 24.5074 24.4806 24.6364 24.5669C26.0302 25.5451 27.4039 26.5527 28.7576 27.5896C28.863 27.7522 29.0044 27.8707 29.1818 27.9452C30.0691 28.5565 30.9378 29.1887 31.7879 29.8418C31.8673 29.9395 31.9481 30.0382 32.0303 30.1382C31.9558 30.1844 31.875 30.2141 31.7879 30.2271C31.9712 30.2349 32.1328 30.2942 32.2727 30.4049C27.1629 30.3566 22.0518 30.3665 16.9394 30.4345C22.0716 30.4659 27.203 30.5153 32.3333 30.5827C29.5253 30.5926 26.7171 30.6024 23.9091 30.6123C21.0805 30.6123 18.2724 30.5728 15.4848 30.4938Z" fill="#E42326"/>
<path fill-rule="evenodd" clip-rule="evenodd" d="M11.303 31.0271C11.2424 30.9481 11.1818 30.869 11.1212 30.79C11.0413 25.9702 11.0413 21.1497 11.1212 16.3285C11.1602 16.2351 11.2208 16.156 11.303 16.0914C11.241 16.3851 11.1905 16.6814 11.1515 16.9804C11.1111 21.4256 11.1111 25.8707 11.1515 30.3159C11.2088 30.5526 11.2593 30.7897 11.303 31.0271Z" fill="#F29395"/>
<path fill-rule="evenodd" clip-rule="evenodd" d="M11.1212 30.79C11.0747 30.7448 11.0444 30.6855 11.0303 30.6122C10.9899 25.93 10.9899 21.2478 11.0303 16.5656C11.043 16.4732 11.0733 16.3942 11.1212 16.3285C11.0413 21.1497 11.0413 25.9702 11.1212 30.79Z" fill="#E74B4E"/>
<path fill-rule="evenodd" clip-rule="evenodd" d="M16.3939 29.8418C16.5117 29.6657 16.6733 29.5472 16.8788 29.4862C16.7394 29.6334 16.5778 29.7519 16.3939 29.8418Z" fill="#F29193"/>
<path fill-rule="evenodd" clip-rule="evenodd" d="M35.1818 29.249C35.1414 29.249 35.1212 29.2293 35.1212 29.1898C35.2422 25.1402 35.2826 21.0704 35.2424 16.9804C35.2828 19.0152 35.303 21.06 35.303 23.1147C35.303 25.1796 35.2626 27.2244 35.1818 29.249Z" fill="#E4373C"/>
<path fill-rule="evenodd" clip-rule="evenodd" d="M35.1818 29.3675C35.2626 29.3675 35.3435 29.3675 35.4242 29.3675C35.4444 25.2285 35.4242 21.0995 35.3636 16.9804C35.3435 16.9014 35.3232 16.8223 35.303 16.7433C35.3834 16.8395 35.4642 16.8988 35.5455 16.9211C35.485 21.0872 35.4648 25.2558 35.4848 29.4268C35.3688 29.4436 35.2678 29.4239 35.1818 29.3675Z" fill="#FEE4E6"/>
<path fill-rule="evenodd" clip-rule="evenodd" d="M17.7273 28.8936C17.714 28.8239 17.7342 28.7646 17.7879 28.7157C17.9489 28.5908 18.1307 28.5118 18.3333 28.4787C18.1651 28.6627 17.9631 28.801 17.7273 28.8936Z" fill="#FDC8C5"/>
<path fill-rule="evenodd" clip-rule="evenodd" d="M35.1212 29.1897C34.6036 28.8282 34.0985 28.4529 33.6061 28.0636C33.5187 27.9854 33.4783 27.8866 33.4849 27.7673C33.3392 27.7703 33.1978 27.7506 33.0606 27.708C32.4259 27.2235 31.7795 26.7494 31.1212 26.2855C31.0555 26.1618 30.9545 26.0828 30.8182 26.0485C30.8182 25.9892 30.8182 25.9299 30.8182 25.8707C30.6619 25.8021 30.5003 25.7429 30.3333 25.6928C30.1939 25.5456 30.0323 25.4271 29.8485 25.3372C29.5862 25.1401 29.3236 24.9425 29.0606 24.7446C28.9949 24.6209 28.8939 24.5419 28.7576 24.5075C28.6532 24.4057 28.5319 24.3266 28.3939 24.2704C28.1225 23.9653 27.7992 23.7283 27.4242 23.5592C27.3585 23.4355 27.2575 23.3565 27.1212 23.3221C26.8202 23.0563 26.497 22.8193 26.1515 22.6109C25.9284 22.3602 25.6658 22.1626 25.3636 22.0182C25.0956 21.7778 24.8128 21.5506 24.5152 21.3366C24.4202 21.2913 24.3395 21.3012 24.2727 21.3662C24.2526 21.3662 24.2323 21.3662 24.2121 21.3662C24.0755 21.4032 23.9745 21.4822 23.9091 21.6033C23.8093 21.7115 23.6881 21.7906 23.5455 21.8404C23.2802 21.8934 23.0782 22.0317 22.9394 22.2553C22.7321 22.3169 22.5704 22.4354 22.4546 22.6109C22.4259 22.6942 22.3653 22.7337 22.2727 22.7294C22.1154 22.7748 21.9538 22.7946 21.7879 22.7887C21.755 22.9391 21.6944 23.0774 21.6061 23.2036C21.5859 23.2036 21.5656 23.2036 21.5455 23.2036C21.3467 23.3187 21.1649 23.4571 21 23.6184C20.3155 24.1707 19.5882 24.6645 18.8182 25.1002C18.5404 25.2338 18.298 25.4116 18.0909 25.6336C17.9227 25.8176 17.7207 25.9559 17.4849 26.0485C17.3252 26.1061 17.2039 26.2049 17.1212 26.3448C17.0575 26.336 16.9969 26.3458 16.9394 26.3744C16.6504 26.5546 16.3877 26.7621 16.1515 26.9968C16.0683 26.9875 15.9875 26.9974 15.9091 27.0264C15.7199 27.2456 15.4976 27.4234 15.2424 27.5598C15.0972 27.6111 15.0568 27.5815 15.1212 27.4709C14.8249 27.3851 14.7642 27.4641 14.9394 27.708C14.8894 27.7605 14.8288 27.7802 14.7576 27.7673C14.7576 27.8265 14.7576 27.8858 14.7576 27.9451C14.5671 28.0483 14.3853 28.1668 14.2121 28.3007C14.116 28.3548 14.0251 28.3548 13.9394 28.3007C13.9021 28.3964 13.8415 28.4755 13.7576 28.5377C13.7273 24.6656 13.7172 20.7934 13.7273 16.9211C13.7677 16.8026 13.8081 16.684 13.8485 16.5655C13.8687 16.5655 13.8889 16.5655 13.9091 16.5655C20.8966 16.5065 27.8864 16.4867 34.8788 16.5062C34.9328 16.5424 34.9934 16.5621 35.0606 16.5655C35.203 16.667 35.2636 16.8053 35.2424 16.9804C35.2826 21.0704 35.2422 25.1402 35.1212 29.1897Z" fill="#E42225"/>
<path fill-rule="evenodd" clip-rule="evenodd" d="M14.2121 28.3601C14.2121 28.3404 14.2121 28.3206 14.2121 28.3008C14.3853 28.167 14.5671 28.0485 14.7576 27.9452C14.6092 28.1264 14.4273 28.2646 14.2121 28.3601Z" fill="#F18D90"/>
<path fill-rule="evenodd" clip-rule="evenodd" d="M18.7576 28.1821C18.823 28.061 18.924 27.982 19.0606 27.9451C18.9976 28.0654 18.8967 28.1444 18.7576 28.1821Z" fill="#F49D9C"/>
<path fill-rule="evenodd" clip-rule="evenodd" d="M13.7273 28.7157C13.6625 28.7711 13.5818 28.7909 13.4848 28.775C13.4647 24.8532 13.4849 20.9415 13.5455 17.0398C13.5455 20.9318 13.5455 24.8237 13.5455 28.7157C13.6061 28.7157 13.6667 28.7157 13.7273 28.7157Z" fill="#FDE4E4"/>
<path fill-rule="evenodd" clip-rule="evenodd" d="M35.1818 29.3677C35.1818 29.3479 35.1818 29.3281 35.1818 29.3084C35.2424 29.3084 35.303 29.3084 35.3636 29.3084C35.3636 25.1991 35.3636 21.0898 35.3636 16.9805C35.4242 21.0996 35.4444 25.2287 35.4242 29.3677C35.3435 29.3677 35.2626 29.3677 35.1818 29.3677Z" fill="#FAB5B6"/>
<path fill-rule="evenodd" clip-rule="evenodd" d="M35.1818 29.3083C35.1818 29.2886 35.1818 29.2688 35.1818 29.2491C35.2626 27.2245 35.303 25.1797 35.303 23.1148C35.303 21.0601 35.2828 19.0153 35.2424 16.9805C35.2636 16.8055 35.203 16.6671 35.0606 16.5656C35.176 16.5797 35.2568 16.639 35.303 16.7434C35.3232 16.8224 35.3435 16.9015 35.3636 16.9805C35.3636 21.0898 35.3636 25.1991 35.3636 29.3083C35.303 29.3083 35.2424 29.3083 35.1818 29.3083Z" fill="#EE7175"/>
<path fill-rule="evenodd" clip-rule="evenodd" d="M13.7879 28.6562C13.7475 28.6562 13.7071 28.6562 13.6667 28.6562C13.6465 24.7345 13.6667 20.8228 13.7273 16.9211C13.7172 20.7933 13.7273 24.6656 13.7576 28.5377C13.8415 28.4754 13.9021 28.3964 13.9394 28.3006C14.0251 28.3548 14.116 28.3548 14.2121 28.3006C14.2121 28.3204 14.2121 28.3402 14.2121 28.3599C14.0837 28.4725 13.9422 28.5713 13.7879 28.6562Z" fill="#E53437"/>
<path fill-rule="evenodd" clip-rule="evenodd" d="M13.6667 28.6562C13.6061 24.7743 13.5859 20.8823 13.6061 16.9803C13.6412 16.8125 13.7219 16.6743 13.8485 16.5655C13.8081 16.684 13.7677 16.8025 13.7273 16.9211C13.6667 20.8228 13.6465 24.7345 13.6667 28.6562Z" fill="#EC686B"/>
<path fill-rule="evenodd" clip-rule="evenodd" d="M13.7879 28.6563C13.7879 28.6958 13.7677 28.7156 13.7273 28.7156C13.6667 28.7156 13.6061 28.7156 13.5455 28.7156C13.5455 24.8236 13.5455 20.9317 13.5455 17.0397C13.5455 17.0001 13.5656 16.9804 13.6061 16.9804C13.5859 20.8823 13.6061 24.7743 13.6667 28.6563C13.7071 28.6563 13.7475 28.6563 13.7879 28.6563Z" fill="#F5ACAD"/>
<path fill-rule="evenodd" clip-rule="evenodd" d="M33.6061 28.0637C33.3924 27.9891 33.2106 27.8706 33.0606 27.7081C33.1978 27.7507 33.3392 27.7705 33.4849 27.7674C33.4783 27.8867 33.5187 27.9855 33.6061 28.0637Z" fill="#E75B57"/>
<path fill-rule="evenodd" clip-rule="evenodd" d="M29.1818 27.9451C29.0044 27.8706 28.863 27.752 28.7576 27.5895C28.935 27.664 29.0764 27.7825 29.1818 27.9451Z" fill="#EA7777"/>
<path fill-rule="evenodd" clip-rule="evenodd" d="M14.7576 27.9451C14.7576 27.8858 14.7576 27.8265 14.7576 27.7673C14.8288 27.7802 14.8894 27.7605 14.9394 27.708C14.7642 27.4641 14.8248 27.3851 15.1212 27.4709C15.0568 27.5815 15.0972 27.6111 15.2424 27.5598C15.4976 27.4234 15.7199 27.2456 15.9091 27.0264C15.9875 26.9974 16.0683 26.9875 16.1515 26.9968C15.7191 27.3565 15.2545 27.6726 14.7576 27.9451Z" fill="#E74744"/>
<path fill-rule="evenodd" clip-rule="evenodd" d="M19.3636 27.7673C19.4725 27.6251 19.6139 27.5263 19.7879 27.471C19.679 27.6132 19.5376 27.712 19.3636 27.7673Z" fill="#F39194"/>
<path fill-rule="evenodd" clip-rule="evenodd" d="M16.1515 26.9968C16.3877 26.7621 16.6504 26.5547 16.9394 26.3745C16.9969 26.3459 17.0575 26.336 17.1212 26.3449C16.8196 26.5913 16.4963 26.8086 16.1515 26.9968Z" fill="#F38388"/>
<path fill-rule="evenodd" clip-rule="evenodd" d="M20.4545 26.9968C20.5723 26.7926 20.7541 26.6741 21 26.6412C20.85 26.8037 20.6682 26.9222 20.4545 26.9968Z" fill="#FBC4C1"/>
<path fill-rule="evenodd" clip-rule="evenodd" d="M21 26.6411C21.0739 26.4112 21.2355 26.2926 21.4848 26.2855C21.3455 26.4327 21.1838 26.5513 21 26.6411Z" fill="#FABAB8"/>
<path fill-rule="evenodd" clip-rule="evenodd" d="M31.1212 26.2856C30.9849 26.2513 30.8839 26.1723 30.8182 26.0486C30.9545 26.0829 31.0555 26.162 31.1212 26.2856Z" fill="#F3A5A4"/>
<path fill-rule="evenodd" clip-rule="evenodd" d="M17.1212 26.345C17.2039 26.2051 17.3252 26.1063 17.4848 26.0486C17.3993 26.1917 17.2781 26.2905 17.1212 26.345Z" fill="#E97C82"/>
<path fill-rule="evenodd" clip-rule="evenodd" d="M30.8182 26.0486C30.6325 25.9582 30.4709 25.8397 30.3333 25.693C30.5003 25.743 30.6619 25.8023 30.8182 25.8708C30.8182 25.93 30.8182 25.9893 30.8182 26.0486Z" fill="#EC6B67"/>
<path fill-rule="evenodd" clip-rule="evenodd" d="M18.0909 25.6338C18.298 25.4118 18.5404 25.234 18.8182 25.1004C18.7917 25.1937 18.7311 25.2628 18.6364 25.3078C18.4714 25.4476 18.2896 25.5562 18.0909 25.6338Z" fill="#ED7275"/>
<path fill-rule="evenodd" clip-rule="evenodd" d="M29.8485 25.3374C29.7339 25.276 29.6228 25.276 29.5152 25.3374C29.3989 25.1149 29.2473 24.9173 29.0606 24.7447C29.3236 24.9427 29.5862 25.1403 29.8485 25.3374Z" fill="#FBD4D0"/>
<path fill-rule="evenodd" clip-rule="evenodd" d="M22.9394 25.2781C23.0636 25.1568 23.205 25.058 23.3636 24.9817C23.2713 25.1515 23.1299 25.2503 22.9394 25.2781Z" fill="#F38C8C"/>
<path fill-rule="evenodd" clip-rule="evenodd" d="M29.0606 24.7446C28.9243 24.7103 28.8233 24.6312 28.7576 24.5076C28.8939 24.5419 28.9949 24.6209 29.0606 24.7446Z" fill="#F49895"/>
<path fill-rule="evenodd" clip-rule="evenodd" d="M24.6364 24.5669C24.5074 24.4805 24.3659 24.4213 24.2121 24.3891C24.4053 24.2969 24.5467 24.3561 24.6364 24.5669Z" fill="#F18689"/>
<path fill-rule="evenodd" clip-rule="evenodd" d="M28.3939 24.2705C28.1721 24.2025 27.9902 24.0741 27.8485 23.8853C27.7637 23.85 27.6829 23.8599 27.6061 23.9149C27.5633 23.7843 27.5027 23.6657 27.4242 23.5593C27.7992 23.7284 28.1225 23.9655 28.3939 24.2705Z" fill="#FCD3CF"/>
<path fill-rule="evenodd" clip-rule="evenodd" d="M27.4242 23.5593C27.2879 23.525 27.187 23.4459 27.1212 23.3223C27.2575 23.3566 27.3585 23.4356 27.4242 23.5593Z" fill="#F7AFAA"/>
<path fill-rule="evenodd" clip-rule="evenodd" d="M21 23.6187C21.1648 23.4573 21.3467 23.3189 21.5455 23.2038C21.4187 23.4063 21.2368 23.5446 21 23.6187Z" fill="#EE7878"/>
<path fill-rule="evenodd" clip-rule="evenodd" d="M21.6061 23.2036C21.6944 23.0775 21.755 22.9392 21.7879 22.7887C21.9538 22.7946 22.1154 22.7748 22.2727 22.7295C22.0859 22.9315 21.8637 23.0895 21.6061 23.2036Z" fill="#E74D48"/>
<path fill-rule="evenodd" clip-rule="evenodd" d="M26.1515 22.6111C26.0381 22.5898 25.9472 22.5305 25.8788 22.4333C25.7171 22.5941 25.5758 22.5743 25.4545 22.374C25.4269 22.3003 25.4572 22.2509 25.5455 22.2258C25.4721 22.1643 25.4115 22.0951 25.3636 22.0184C25.6658 22.1628 25.9284 22.3604 26.1515 22.6111Z" fill="#FBD4D2"/>
<path fill-rule="evenodd" clip-rule="evenodd" d="M22.4545 22.6111C22.5704 22.4356 22.7321 22.3171 22.9394 22.2555C22.8041 22.4015 22.6425 22.52 22.4545 22.6111Z" fill="#F08283"/>
<path fill-rule="evenodd" clip-rule="evenodd" d="M25.3636 22.0183C25.267 21.9934 25.1761 21.9539 25.0909 21.8998C25.0333 21.9307 24.9828 21.9702 24.9394 22.0183C24.899 21.9195 24.8586 21.8208 24.8182 21.722C24.7827 21.7344 24.7524 21.7542 24.7273 21.7812C24.6611 21.5484 24.5096 21.4102 24.2727 21.3664C24.3395 21.3013 24.4202 21.2914 24.5151 21.3367C24.8128 21.5507 25.0956 21.7779 25.3636 22.0183Z" fill="#FBD3D2"/>
<path fill-rule="evenodd" clip-rule="evenodd" d="M22.9394 22.2554C23.0782 22.0318 23.2802 21.8935 23.5455 21.8405C23.3864 22.037 23.1844 22.1753 22.9394 22.2554Z" fill="#EE716E"/>
<path fill-rule="evenodd" clip-rule="evenodd" d="M23.9091 21.6035C23.9745 21.4824 24.0755 21.4034 24.2121 21.3664C24.1492 21.4868 24.0482 21.5658 23.9091 21.6035Z" fill="#EE8C86"/>
<path fill-rule="evenodd" clip-rule="evenodd" d="M13.9091 16.5657C13.9779 16.4641 14.0789 16.4246 14.2121 16.4471C21.1112 16.4274 28.0001 16.4471 34.8788 16.5064C27.8864 16.4869 20.8965 16.5066 13.9091 16.5657Z" fill="#DD3031"/>
<path fill-rule="evenodd" clip-rule="evenodd" d="M35.0606 16.5657C34.9934 16.5623 34.9328 16.5426 34.8788 16.5064C28.0001 16.4471 21.1112 16.4274 14.2121 16.4471C21.1111 16.378 28.0202 16.3681 34.9394 16.4175C34.9928 16.4595 35.0332 16.5089 35.0606 16.5657Z" fill="#EE8282"/>
<path fill-rule="evenodd" clip-rule="evenodd" d="M11.303 16.0322C11.2838 15.8555 11.3444 15.7172 11.4848 15.6173C11.4817 15.786 11.4211 15.9244 11.303 16.0322Z" fill="#F18E8F"/>
<path fill-rule="evenodd" clip-rule="evenodd" d="M37.4848 15.6172C37.3716 15.5263 37.2908 15.4077 37.2424 15.2616C37.3832 15.3387 37.4639 15.4573 37.4848 15.6172Z" fill="#F48684"/>
<path fill-rule="evenodd" clip-rule="evenodd" d="M11.4848 15.6172C11.6598 15.2291 11.9224 14.913 12.2727 14.6689C12.0083 14.9865 11.7456 15.3025 11.4848 15.6172Z" fill="#F28F91"/>
<path fill-rule="evenodd" clip-rule="evenodd" d="M37.1818 15.1431C37 15.0048 36.8384 14.8467 36.697 14.6689C36.9192 14.7677 37.0808 14.9257 37.1818 15.1431Z" fill="#E76163"/>
<path fill-rule="evenodd" clip-rule="evenodd" d="M12.2727 14.6689C12.3725 14.5607 12.4938 14.4817 12.6364 14.4319C12.5575 14.5695 12.4362 14.6485 12.2727 14.6689Z" fill="#F48E90"/>
<path fill-rule="evenodd" clip-rule="evenodd" d="M12.6364 14.4319C12.6961 14.3188 12.7971 14.2595 12.9394 14.2541C12.8691 14.3578 12.7681 14.4171 12.6364 14.4319Z" fill="#EC7673"/>
<path fill-rule="evenodd" clip-rule="evenodd" d="M35.5455 14.0762C28.2319 13.9975 20.9188 13.9975 13.6061 14.0762C13.6061 14.0564 13.6061 14.0366 13.6061 14.0169C20.7562 13.9581 27.9078 13.9383 35.0606 13.9576C35.2347 13.9755 35.3963 14.0151 35.5455 14.0762Z" fill="#FECFCE"/>
<path fill-rule="evenodd" clip-rule="evenodd" d="M13.6061 14.0171C13.6667 13.9776 13.7273 13.9381 13.7879 13.8986C20.8788 13.8986 27.9697 13.8986 35.0606 13.8986C35.0606 13.9183 35.0606 13.9381 35.0606 13.9578C27.9078 13.9385 20.7562 13.9583 13.6061 14.0171Z" fill="#E96465"/>
<path fill-rule="evenodd" clip-rule="evenodd" d="M35.0606 13.8986C27.9697 13.8986 20.8788 13.8986 13.7879 13.8986C13.755 13.895 13.7348 13.8753 13.7273 13.8393C20.9191 13.7702 28.111 13.7603 35.303 13.8097C35.2386 13.8801 35.1578 13.9097 35.0606 13.8986Z" fill="#E2161B"/>
</g>
<defs>
<clipPath id="clip0_14862_426">
<rect width="48" height="47" fill="white" transform="matrix(-1 0 0 -1 48 47)"/>
</clipPath>
</defs>
</svg>
