<svg width="68" height="61" viewBox="0 0 68 61" fill="none" xmlns="http://www.w3.org/2000/svg">
<g clip-path="url(#clip0_14847_14)">
<path fill-rule="evenodd" clip-rule="evenodd" d="M-0.113281 -0.101654C22.5534 -0.101654 45.2201 -0.101654 67.8867 -0.101654C67.8867 20.2317 67.8867 40.565 67.8867 60.8983C45.2201 60.8983 22.5534 60.8983 -0.113281 60.8983C-0.113281 40.565 -0.113281 20.2317 -0.113281 -0.101654Z" fill="#FA281F"/>
<path fill-rule="evenodd" clip-rule="evenodd" d="M34.1134 7.62501C34.0837 7.77526 34.1215 7.91082 34.2267 8.03168C39.7265 7.89705 45.2044 7.76151 50.66 7.62501C50.8586 7.5984 51.0098 7.66619 51.1134 7.82835C50.4506 9.9214 49.8461 12.0225 49.3 14.1317C43.6093 14.5335 37.8672 14.669 32.0734 14.5383C32.6577 12.2001 33.3377 9.89564 34.1134 7.62501Z" fill="#FEFDFD"/>
<path fill-rule="evenodd" clip-rule="evenodd" d="M34.1133 7.625C39.6288 7.625 45.1445 7.625 50.66 7.625C45.2043 7.7615 39.7265 7.89704 34.2266 8.03167C34.1215 7.91081 34.0836 7.77524 34.1133 7.625Z" fill="#EBFEE8"/>
<path fill-rule="evenodd" clip-rule="evenodd" d="M49.3 14.1317C49.3385 14.4005 49.2631 14.6377 49.0733 14.8433C43.28 14.814 37.5378 14.9835 31.8467 15.3517C31.8467 15.0805 31.8467 14.8094 31.8467 14.5383C31.9222 14.5383 31.9979 14.5383 32.0733 14.5383C37.8672 14.669 43.6093 14.5335 49.3 14.1317Z" fill="#F84133"/>
<path fill-rule="evenodd" clip-rule="evenodd" d="M31.8466 14.5383C31.8466 14.8094 31.8466 15.0806 31.8466 15.3517C31.2636 16.926 30.8103 18.5527 30.4866 20.2317C30.2817 20.3758 30.2062 20.5792 30.26 20.8417C27.6506 20.775 25.0815 20.8427 22.5533 21.045C22.3266 21.045 22.1 21.045 21.8733 21.045C22.4022 18.8761 22.9311 16.7072 23.46 14.5383C26.2554 14.5383 29.0511 14.5383 31.8466 14.5383Z" fill="#FCFBFB"/>
<path fill-rule="evenodd" clip-rule="evenodd" d="M31.8467 15.3517C32.2332 16.6762 32.3841 18.0318 32.3 19.4183C35.3988 19.3844 38.4964 19.4183 41.5934 19.52C37.9674 19.6216 34.3407 19.6555 30.7134 19.6217C30.7134 19.9605 30.7134 20.2994 30.7134 20.6383C34.5667 20.6383 38.42 20.6383 42.2734 20.6383C42.3491 21.2465 42.1224 21.7209 41.5934 22.0617C41.8187 21.6887 41.8187 21.3498 41.5934 21.045C37.9309 20.8425 34.2287 20.7746 30.4867 20.8417C30.4867 20.6383 30.4867 20.435 30.4867 20.2317C30.8104 18.5526 31.2637 16.926 31.8467 15.3517Z" fill="#F53129"/>
<path fill-rule="evenodd" clip-rule="evenodd" d="M22.5533 21.045C25.0816 20.8427 27.6506 20.775 30.26 20.8417C30.26 20.9094 30.26 20.9773 30.26 21.045C30.299 21.2467 30.2233 21.3821 30.0333 21.4517C27.6271 21.0497 25.1337 20.914 22.5533 21.045Z" fill="#F2B7B9"/>
<path fill-rule="evenodd" clip-rule="evenodd" d="M30.4867 20.2317C30.4867 20.435 30.4867 20.6383 30.4867 20.8417C34.2287 20.7746 37.9309 20.8425 41.5934 21.045C37.8155 21.045 34.0379 21.045 30.26 21.045C30.26 20.9773 30.26 20.9094 30.26 20.8417C30.2063 20.5792 30.2818 20.3758 30.4867 20.2317Z" fill="#FD6F65"/>
<path fill-rule="evenodd" clip-rule="evenodd" d="M30.04 21C33.8179 21 37.5955 21 41.3733 21C41.5986 21.3048 41.5986 21.6438 41.3733 22.0167C40.8744 23.415 40.4966 24.8383 40.24 26.2867C39.9748 26.7238 39.7481 27.1984 39.56 27.71C37.6333 27.7777 35.7067 27.8456 33.78 27.9133C31.7715 27.9129 29.8448 27.7773 28 27.5067C28.597 25.4821 29.2016 23.4487 29.8133 21.4067C30.0033 21.3371 30.079 21.2017 30.04 21Z" fill="#FDFDFC"/>
<path fill-rule="evenodd" clip-rule="evenodd" d="M40.46 26.3317C40.5228 26.9311 40.4473 27.5071 40.2334 28.06C36.4011 28.0954 32.5854 28.197 28.7867 28.365C28.7112 28.2973 28.6355 28.2294 28.56 28.1617C28.3995 28.3408 28.2105 28.4762 27.9934 28.5683C27.9934 28.365 27.9934 28.1617 27.9934 27.9583C25.1979 27.9583 22.4022 27.9583 19.6067 27.9583C22.5042 27.8066 25.3754 27.6712 28.22 27.5517C30.0649 27.8223 31.9915 27.9579 34 27.9583C35.9267 27.8906 37.8534 27.8227 39.78 27.755C39.9682 27.2434 40.1948 26.7688 40.46 26.3317Z" fill="#F63334"/>
<path fill-rule="evenodd" clip-rule="evenodd" d="M19.6066 27.9583C22.4022 27.9583 25.1978 27.9583 27.9933 27.9583C27.9933 28.1617 27.9933 28.365 27.9933 28.5683C27.0862 31.5524 26.1795 34.5345 25.2733 37.515C22.6288 37.515 19.9844 37.515 17.34 37.515C17.3862 36.9013 17.4617 36.2913 17.5666 35.685C18.1322 33.0797 18.8122 30.5041 19.6066 27.9583Z" fill="#FDFCFC"/>
<path fill-rule="evenodd" clip-rule="evenodd" d="M17.5667 35.685C17.4618 36.2913 17.3862 36.9013 17.34 37.515C19.9845 37.515 22.6289 37.515 25.2733 37.515C22.5181 37.7173 19.7226 37.7852 16.8867 37.7183C16.7791 36.9221 17.0058 36.2444 17.5667 35.685Z" fill="#FEDBCB"/>
<path fill-rule="evenodd" clip-rule="evenodd" d="M16.66 43.005C16.6205 43.4851 16.545 43.9595 16.4333 44.4283C15.1807 44.3631 13.9718 44.4308 12.8066 44.6317C12.5872 45.0601 12.5116 45.5347 12.58 46.055C13.5622 46.055 14.5444 46.055 15.5266 46.055C15.415 46.5239 15.3394 46.9983 15.3 47.4783C14.1398 47.3557 13.082 47.4914 12.1266 47.885C12.0488 48.643 11.8977 49.3887 11.6733 50.1217C11.0096 50.3218 10.3296 50.3895 9.6333 50.325C10.1604 47.8986 10.6137 45.4586 10.9933 43.005C12.8822 43.005 14.7711 43.005 16.66 43.005Z" fill="#FAF6F5"/>
<path fill-rule="evenodd" clip-rule="evenodd" d="M16.66 43.005C16.947 43.4511 16.947 43.9257 16.66 44.4283C15.3843 44.6307 14.0999 44.6986 12.8066 44.6317C13.9718 44.4308 15.1807 44.3631 16.4333 44.4283C16.545 43.9595 16.6205 43.4851 16.66 43.005Z" fill="#FB767B"/>
<path fill-rule="evenodd" clip-rule="evenodd" d="M37.06 43.005C37.06 45.3773 37.06 47.7494 37.06 50.1217C36.4555 50.1217 35.8512 50.1217 35.2467 50.1217C35.2467 49.5794 35.2467 49.0373 35.2467 48.495C34.5184 48.432 33.8384 48.4997 33.2067 48.6983C33.0111 49.0889 32.8601 49.4956 32.7534 49.9183C31.9766 50.2593 31.2966 50.1916 30.7134 49.715C31.5514 47.5196 32.458 45.3507 33.4334 43.2083C34.6329 43.006 35.8417 42.9383 37.06 43.005Z" fill="#F8F9F7"/>
<path fill-rule="evenodd" clip-rule="evenodd" d="M48.62 45.0383C49.6051 45.0046 50.5872 45.0385 51.5667 45.14C51.7063 45.4247 51.7818 45.7297 51.7933 46.055C51.7741 46.4277 51.6229 46.6988 51.34 46.8683C51.34 46.8006 51.34 46.7327 51.34 46.665C51.3076 46.3067 51.3833 45.9678 51.5667 45.6483C50.4916 45.5717 49.5094 45.3683 48.62 45.0383Z" fill="#F65849"/>
<path fill-rule="evenodd" clip-rule="evenodd" d="M21.6467 45.445C22.2016 45.2472 22.8061 45.1795 23.4601 45.2417C23.5244 45.6311 23.449 45.9698 23.2334 46.2583C23.2334 45.9873 23.2334 45.7161 23.2334 45.445C22.7046 45.445 22.1756 45.445 21.6467 45.445Z" fill="#FC887C"/>
<path fill-rule="evenodd" clip-rule="evenodd" d="M34.34 45.445C34.2646 45.9873 34.1888 46.5294 34.1134 47.0717C34.4155 47.0717 34.7179 47.0717 35.02 47.0717C35.0926 46.3807 35.0171 45.7028 34.7934 45.0383C34.6386 45.1122 34.4874 45.1799 34.34 45.2417C34.384 44.7512 34.6862 44.5479 35.2467 44.6317C35.2467 45.5127 35.2467 46.394 35.2467 47.275C34.7124 47.3082 34.1836 47.2744 33.66 47.1733C33.8173 46.5583 34.044 45.9822 34.34 45.445Z" fill="#F04E4E"/>
<path fill-rule="evenodd" clip-rule="evenodd" d="M17.1134 49.9183C17.0801 48.9598 17.1556 48.0109 17.34 47.0717C17.6777 45.5977 17.9043 44.1067 18.02 42.5983C18.7 42.5983 19.38 42.5983 20.06 42.5983C19.6265 44.6933 19.2487 46.7943 18.9267 48.9017C19.2289 48.9017 19.5311 48.9017 19.8334 48.9017C19.8334 49.3083 19.8334 49.715 19.8334 50.1217C19.0104 50.3071 18.1793 50.3411 17.34 50.2233C17.214 50.1455 17.1384 50.0438 17.1134 49.9183Z" fill="#F7F6F5"/>
<path fill-rule="evenodd" clip-rule="evenodd" d="M34.3399 45.445C34.3399 45.3773 34.3399 45.3094 34.3399 45.2417C34.4873 45.1799 34.6385 45.1121 34.7933 45.0383C35.017 45.7028 35.0925 46.3807 35.0199 47.0717C34.7178 47.0717 34.4154 47.0717 34.1133 47.0717C34.1888 46.5294 34.2645 45.9873 34.3399 45.445Z" fill="#F9291E"/>
<path fill-rule="evenodd" clip-rule="evenodd" d="M41.5933 48.6983C40.9548 49.0135 40.6527 48.8102 40.6867 48.0883C40.8628 47.2085 41.014 46.3275 41.14 45.445C40.5355 45.445 39.9312 45.445 39.3267 45.445C39.3733 46.054 39.2224 46.5963 38.8733 47.0717C38.8359 46.3905 38.8738 45.7128 38.9867 45.0383C39.2133 44.835 39.44 44.6317 39.6667 44.4283C40.2607 44.7315 40.9031 44.8671 41.5933 44.835C41.3662 45.9503 41.3662 47.238 41.5933 48.6983Z" fill="#F7473B"/>
<path fill-rule="evenodd" clip-rule="evenodd" d="M48.62 45.0383C49.5095 45.3683 50.4916 45.5717 51.5667 45.6483C51.3833 45.9678 51.3076 46.3067 51.34 46.665C50.1797 46.5424 49.1221 46.678 48.1667 47.0717C48.1667 47.6817 48.1667 48.2917 48.1667 48.9017C48.9079 48.9419 49.3612 48.6369 49.5267 47.9867C50.1265 47.8856 50.731 47.8516 51.34 47.885C50.8672 49.9889 49.4317 50.7683 47.0334 50.2233C46.289 49.9395 45.9111 49.4311 45.9 48.6983C46.2969 47.2911 46.5993 45.8677 46.8067 44.4283C47.4443 44.0674 48.1243 43.898 48.8467 43.92C48.6413 44.2655 48.5659 44.6384 48.62 45.0383Z" fill="#F9F5F4"/>
<path fill-rule="evenodd" clip-rule="evenodd" d="M54.2867 45.2417C57.9004 44.8126 58.9959 46.1003 57.5734 49.105C56.3673 50.2364 54.8939 50.6091 53.1534 50.2233C52.6783 49.8301 52.4516 49.3218 52.4734 48.6983C52.4996 47.9419 52.613 47.1963 52.8134 46.4617C53.1388 45.8635 53.63 45.4568 54.2867 45.2417Z" fill="#F9F6F4"/>
<path fill-rule="evenodd" clip-rule="evenodd" d="M51.34 46.665C51.34 46.7327 51.34 46.8006 51.34 46.8683C50.2603 46.8126 49.2025 46.8803 48.1666 47.0717C49.122 46.678 50.1797 46.5424 51.34 46.665Z" fill="#FDA29B"/>
<path fill-rule="evenodd" clip-rule="evenodd" d="M21.6467 45.445C22.1756 45.445 22.7046 45.445 23.2334 45.445C23.2334 45.7161 23.2334 45.9873 23.2334 46.2583C23.0747 47.1323 22.9992 48.0133 23.0067 48.9017C23.4061 48.9308 23.784 48.8628 24.1401 48.6983C24.3672 47.6121 24.5938 46.5278 24.8201 45.445C25.4246 45.445 26.0289 45.445 26.6334 45.445C26.4101 47.423 26.0701 49.3885 25.6134 51.3417C24.544 52.8579 23.0706 53.3663 21.1934 52.8667C20.2575 51.9663 20.3331 51.1192 21.4201 50.325C21.0659 49.7715 20.9148 49.1615 20.9667 48.495C20.9374 47.4064 21.164 46.3897 21.6467 45.445Z" fill="#F9F3F2"/>
<path fill-rule="evenodd" clip-rule="evenodd" d="M15.3 47.4783C14.2656 47.6239 13.2078 47.7595 12.1267 47.885C13.082 47.4913 14.1398 47.3557 15.3 47.4783Z" fill="#FB7E81"/>
<path fill-rule="evenodd" clip-rule="evenodd" d="M17.3399 47.0717C17.1555 48.0109 17.08 48.9598 17.1133 49.9183C16.9632 49.5515 16.8877 49.1449 16.8866 48.6983C16.8382 48.0828 16.9893 47.5408 17.3399 47.0717Z" fill="#EB6F62"/>
<path fill-rule="evenodd" clip-rule="evenodd" d="M29.3533 48.495C28.7979 48.4539 28.2691 48.5216 27.7666 48.6983C27.9144 48.4492 28.1789 48.3136 28.5599 48.2917C28.8739 48.2945 29.1382 48.3624 29.3533 48.495Z" fill="#EE7A76"/>
<path fill-rule="evenodd" clip-rule="evenodd" d="M54.9667 46.665C55.7442 46.5135 56.122 46.7848 56.1001 47.4783C56.1248 48.629 55.5581 49.0357 54.4001 48.6983C54.2425 47.9373 54.4313 47.2595 54.9667 46.665Z" fill="#FA3328"/>
<path fill-rule="evenodd" clip-rule="evenodd" d="M37.06 43.005C37.2855 45.4088 37.361 47.8488 37.2867 50.325C36.5312 50.325 35.7755 50.325 35.02 50.325C35.02 49.7827 35.02 49.2406 35.02 48.6983C34.4155 48.6983 33.8112 48.6983 33.2067 48.6983C33.8384 48.4997 34.5184 48.432 35.2467 48.495C35.2467 49.0373 35.2467 49.5794 35.2467 50.1217C35.8512 50.1217 36.4555 50.1217 37.06 50.1217C37.06 47.7494 37.06 45.3773 37.06 43.005Z" fill="#FBA8A1"/>
<path fill-rule="evenodd" clip-rule="evenodd" d="M29.3533 48.495C29.8506 49.4897 29.5106 50.0997 28.3333 50.325C27.2351 50.0454 27.0463 49.5031 27.7667 48.6983C28.2692 48.5216 28.798 48.4539 29.3533 48.495Z" fill="#FBF3F2"/>
<path fill-rule="evenodd" clip-rule="evenodd" d="M41.5933 48.6983C41.8766 48.6827 42.0654 48.5471 42.16 48.2917C42.3744 47.3435 42.5632 46.3946 42.7266 45.445C43.3312 45.445 43.9354 45.445 44.54 45.445C44.3643 46.5945 44.2131 47.7467 44.0866 48.9017C44.3133 48.9017 44.54 48.9017 44.7666 48.9017C44.7666 49.3083 44.7666 49.715 44.7666 50.1217C43.745 50.5113 42.8384 50.3756 42.0466 49.715C40.9274 50.5076 39.8316 50.5076 38.76 49.715C38.6659 48.8309 38.7035 47.9499 38.8733 47.0717C39.2224 46.5963 39.3733 46.054 39.3266 45.445C39.9312 45.445 40.5354 45.445 41.14 45.445C41.0139 46.3275 40.8628 47.2085 40.6866 48.0883C40.6526 48.8102 40.9548 49.0135 41.5933 48.6983Z" fill="#FAF7F6"/>
<path fill-rule="evenodd" clip-rule="evenodd" d="M30.7134 49.715C31.2966 50.1916 31.9766 50.2593 32.7534 49.9183C32.1103 50.3051 31.3546 50.4407 30.4867 50.325C30.433 50.0625 30.5085 49.8592 30.7134 49.715Z" fill="#FB97A3"/>
<path fill-rule="evenodd" clip-rule="evenodd" d="M23.4599 50.1217C23.7061 50.1461 23.8573 50.2817 23.9133 50.5283C23.6524 50.8994 23.5012 51.3061 23.4599 51.7483C23.1578 51.7483 22.8554 51.7483 22.5533 51.7483C22.3887 50.9742 22.6909 50.4319 23.4599 50.1217Z" fill="#EF4133"/>
</g>
<defs>
<clipPath id="clip0_14847_14">
<rect width="68" height="61" rx="10" fill="white"/>
</clipPath>
</defs>
</svg>
