<svg width="64" height="64" viewBox="0 0 64 64" fill="none" xmlns="http://www.w3.org/2000/svg">
<g clip-path="url(#clip0_14870_1217)">
<path opacity="0.984" fill-rule="evenodd" clip-rule="evenodd" d="M11 0C25 0 39 0 53 0C58.3333 2 62 5.66667 64 11C64 25 64 39 64 53C62 58.3333 58.3333 62 53 64C39 64 25 64 11 64C5.66667 62 2 58.3333 0 53C0 39 0 25 0 11C2 5.66667 5.66667 2 11 0Z" fill="white"/>
<path fill-rule="evenodd" clip-rule="evenodd" d="M10.5 19.5001C13.2469 19.1867 15.9135 19.5201 18.5 20.5001C19.9146 25.674 22.5813 30.0073 26.5 33.5001C28.0239 28.94 27.6906 24.6067 25.5 20.5001C28.7683 19.5131 32.1016 19.1797 35.5 19.5001C35.1758 23.5547 35.5091 27.5547 36.5 31.5001C40.1379 28.359 42.8045 24.5256 44.5 20.0001C47.146 19.5027 49.8127 19.336 52.5 19.5001C50.8433 24.3124 48.51 28.8124 45.5 33.0001C48.3443 36.3471 51.011 39.8471 53.5 43.5001C48.3308 45.6728 44.3308 44.5061 41.5 40.0001C39.7834 38.4413 37.7834 37.608 35.5 37.5001C35.5 39.8334 35.5 42.1668 35.5 44.5001C26.6142 45.1388 20.1142 41.4722 16 33.5001C13.3059 29.1212 11.4726 24.4545 10.5 19.5001Z" fill="#FA281F"/>
</g>
<defs>
<clipPath id="clip0_14870_1217">
<rect width="64" height="64" fill="white"/>
</clipPath>
</defs>
</svg>
