<svg width="64" height="64" viewBox="0 0 64 64" fill="none" xmlns="http://www.w3.org/2000/svg">
<g clip-path="url(#clip0_14870_1207)">
<path opacity="0.926" fill-rule="evenodd" clip-rule="evenodd" d="M27.5 -0.5C30.1667 -0.5 32.8333 -0.5 35.5 -0.5C51.1667 2.5 60.5 11.8333 63.5 27.5C63.5 30.1667 63.5 32.8333 63.5 35.5C60.5 51.1667 51.1667 60.5 35.5 63.5C32.8333 63.5 30.1667 63.5 27.5 63.5C11.8333 60.5 2.5 51.1667 -0.5 35.5C-0.5 32.8333 -0.5 30.1667 -0.5 27.5C2.5 11.8333 11.8333 2.5 27.5 -0.5Z" fill="white"/>
<path fill-rule="evenodd" clip-rule="evenodd" d="M31.5 41.5C30.205 40.5116 28.8717 39.5116 27.5 38.5C27.369 37.7611 27.5357 37.0944 28 36.5C32.4514 33.016 36.618 29.1827 40.5 25C34.1638 27.6769 28.1638 31.1769 22.5 35.5C19.6872 35.4519 17.0205 34.7853 14.5 33.5C13.2888 32.7261 13.2888 31.8928 14.5 31C24.8906 26.3003 35.5573 22.467 46.5 19.5C45.0977 28.5788 43.2643 37.5788 41 46.5C40.2825 47.4506 39.4491 47.6172 38.5 47C36.1364 45.1581 33.8031 43.3247 31.5 41.5Z" fill="#FA281F"/>
<path fill-rule="evenodd" clip-rule="evenodd" d="M27.5 38.5C26.8826 38.3893 26.3826 38.056 26 37.5C25.8091 39.7078 25.3091 41.7078 24.5 43.5C24.0372 40.779 23.3705 38.1123 22.5 35.5C28.1638 31.1769 34.1638 27.6769 40.5 25C36.618 29.1827 32.4514 33.016 28 36.5C27.5357 37.0944 27.369 37.7611 27.5 38.5Z" fill="#9A1610"/>
<path fill-rule="evenodd" clip-rule="evenodd" d="M27.5 38.5C28.8717 39.5116 30.205 40.5116 31.5 41.5C29.8143 43.0165 27.981 44.3498 26 45.5C24.9701 45.1639 24.4701 44.4972 24.5 43.5C25.3091 41.7078 25.8091 39.7078 26 37.5C26.3826 38.056 26.8826 38.3893 27.5 38.5Z" fill="#920000"/>
</g>
<defs>
<clipPath id="clip0_14870_1207">
<rect width="64" height="64" fill="white"/>
</clipPath>
</defs>
</svg>
