<svg width="429" height="220" viewBox="0 0 429 220" fill="none" xmlns="http://www.w3.org/2000/svg">
<g filter="url(#filter0_i_14918_6)">
<rect x="129" width="300" height="220" fill="#F2F2F2"/>
</g>
<mask id="mask0_14918_6" style="mask-type:luminance" maskUnits="userSpaceOnUse" x="0" y="45" width="119" height="119">
<path d="M119 45H0V164H119V45Z" fill="white"/>
</mask>
<g mask="url(#mask0_14918_6)">
<path d="M59.5 164C92.3095 164 119 137.31 119 104.5C119.014 96.6304 117.458 88.8372 114.421 81.5769C114.102 80.7943 113.386 80.2414 112.549 80.1326C111.71 80.0222 110.876 80.3701 110.365 81.0439C109.855 81.7187 109.745 82.6157 110.079 83.3929C112.876 90.078 114.308 97.2542 114.294 104.5C114.294 134.714 89.7136 159.294 59.5 159.294C29.2864 159.294 4.7062 134.714 4.7062 104.5C4.7062 74.2864 29.2864 49.7063 59.5 49.7063C65.6401 49.6984 71.7382 50.7252 77.5369 52.7448C78.3315 53.0271 79.2178 52.8617 79.8572 52.3115C80.4968 51.7626 80.7936 50.9117 80.6346 50.0831C80.4757 49.2546 79.8849 48.5743 79.0864 48.3012C72.7888 46.1083 66.168 44.9922 59.5 45C26.6905 45 0 71.6905 0 104.5C0 137.31 26.6905 164 59.5 164Z" fill="#E61A1A"/>
<path d="M82.8275 60.3031C81.9085 59.3839 80.418 59.3839 79.4987 60.3031C78.5809 61.2223 78.5809 62.7127 79.4987 63.6319L90.4489 74.5819C91.3536 75.4868 92.8138 75.5024 93.7383 74.6188L113.042 56.1812C113.66 55.6021 113.918 54.7368 113.721 53.9148C113.523 53.0928 112.899 52.4388 112.086 52.2038C111.275 51.9687 110.399 52.188 109.792 52.7776L92.1506 69.6276L82.8275 60.3031Z" fill="#E61A1A"/>
<path d="M59.5 81.7398C65.0546 81.7462 69.556 86.2477 69.5625 91.8022C69.5625 93.1021 70.6156 94.1552 71.9157 94.1552C73.2155 94.1552 74.2687 93.1021 74.2687 91.8022C74.2595 84.5576 69.0032 78.386 61.8533 77.2227V72.5649C61.8533 71.2651 60.8001 70.2119 59.5 70.2119C58.2 70.2119 57.147 71.2651 57.147 72.5649V77.2227C49.5491 78.4529 44.1694 85.31 44.7852 92.9826C45.3998 100.654 51.804 106.567 59.5 106.569C65.0335 106.569 69.5297 111.038 69.5612 116.573C69.594 122.106 65.1503 126.627 59.617 126.692C59.5776 126.689 59.5394 126.685 59.5 126.685C59.4606 126.685 59.4227 126.689 59.3833 126.692C53.8746 126.622 49.4443 122.141 49.4376 116.632C49.4376 115.332 48.3844 114.279 47.0846 114.279C45.7845 114.279 44.7314 115.332 44.7314 116.632C44.7406 123.876 49.9956 130.048 57.147 131.212V136.435C57.147 137.735 58.2 138.788 59.5 138.788C60.8001 138.788 61.8533 137.735 61.8533 136.435V131.212C69.4521 129.985 74.8347 123.125 74.2188 115.453C73.6043 107.78 67.1976 101.866 59.5 101.866C55.8916 101.885 52.5472 99.9723 50.7377 96.8511C48.9269 93.7285 48.9269 89.8772 50.7377 86.7546C52.5472 83.6334 55.8916 81.7187 59.5 81.7398Z" fill="#E61A1A"/>
</g>
<defs>
<filter id="filter0_i_14918_6" x="129" y="0" width="300" height="224" filterUnits="userSpaceOnUse" color-interpolation-filters="sRGB">
<feFlood flood-opacity="0" result="BackgroundImageFix"/>
<feBlend mode="normal" in="SourceGraphic" in2="BackgroundImageFix" result="shape"/>
<feColorMatrix in="SourceAlpha" type="matrix" values="0 0 0 0 0 0 0 0 0 0 0 0 0 0 0 0 0 0 127 0" result="hardAlpha"/>
<feOffset dy="4"/>
<feGaussianBlur stdDeviation="2"/>
<feComposite in2="hardAlpha" operator="arithmetic" k2="-1" k3="1"/>
<feColorMatrix type="matrix" values="0 0 0 0 0 0 0 0 0 0 0 0 0 0 0 0 0 0 0.25 0"/>
<feBlend mode="normal" in2="shape" result="effect1_innerShadow_14918_6"/>
</filter>
</defs>
</svg>
