<svg width="411" height="506" viewBox="0 0 411 506" fill="none" xmlns="http://www.w3.org/2000/svg">
<path d="M33.152 124L3.456 34.4H20.736L47.232 115.424H38.656L66.176 34.4H81.536L108.288 115.424H99.968L127.104 34.4H142.976L113.28 124H95.616L71.168 50.912H75.776L50.944 124H33.152ZM257.908 34.4H274.548V124H257.908V34.4ZM211.572 124H194.932V34.4H211.572V124ZM259.188 85.6H210.164V71.392H259.188V85.6ZM358.973 124V88.544L362.685 98.784L323.773 34.4H341.565L372.797 86.24H362.813L394.301 34.4H410.685L371.773 98.784L375.613 88.544V124H358.973Z" fill="black"/>
<path d="M108.45 505.1C97.89 505.1 89.6033 502.13 83.59 496.19C77.65 490.25 74.68 481.67 74.68 470.45V427H88.98V469.9C88.98 477.82 90.6667 483.577 94.04 487.17C97.4867 490.763 102.327 492.56 108.56 492.56C114.793 492.56 119.597 490.763 122.97 487.17C126.343 483.577 128.03 477.82 128.03 469.9V427H142.11V470.45C142.11 481.67 139.103 490.25 133.09 496.19C127.15 502.13 118.937 505.1 108.45 505.1ZM219.007 505.1C212.994 505.1 207.237 504.257 201.737 502.57C196.237 500.81 191.874 498.573 188.647 495.86L193.597 484.75C196.677 487.17 200.49 489.187 205.037 490.8C209.584 492.413 214.24 493.22 219.007 493.22C223.04 493.22 226.304 492.78 228.797 491.9C231.29 491.02 233.124 489.847 234.297 488.38C235.47 486.84 236.057 485.117 236.057 483.21C236.057 480.863 235.214 478.993 233.527 477.6C231.84 476.133 229.64 474.997 226.927 474.19C224.287 473.31 221.317 472.503 218.017 471.77C214.79 471.037 211.527 470.193 208.227 469.24C205 468.213 202.03 466.93 199.317 465.39C196.677 463.777 194.514 461.65 192.827 459.01C191.14 456.37 190.297 452.997 190.297 448.89C190.297 444.71 191.397 440.897 193.597 437.45C195.87 433.93 199.28 431.143 203.827 429.09C208.447 426.963 214.277 425.9 221.317 425.9C225.937 425.9 230.52 426.487 235.067 427.66C239.614 428.833 243.574 430.52 246.947 432.72L242.437 443.83C238.99 441.777 235.434 440.273 231.767 439.32C228.1 438.293 224.58 437.78 221.207 437.78C217.247 437.78 214.02 438.257 211.527 439.21C209.107 440.163 207.31 441.41 206.137 442.95C205.037 444.49 204.487 446.25 204.487 448.23C204.487 450.577 205.294 452.483 206.907 453.95C208.594 455.343 210.757 456.443 213.397 457.25C216.11 458.057 219.117 458.863 222.417 459.67C225.717 460.403 228.98 461.247 232.207 462.2C235.507 463.153 238.477 464.4 241.117 465.94C243.83 467.48 245.994 469.57 247.607 472.21C249.294 474.85 250.137 478.187 250.137 482.22C250.137 486.327 249 490.14 246.727 493.66C244.527 497.107 241.117 499.893 236.497 502.02C231.877 504.073 226.047 505.1 219.007 505.1Z" fill="black"/>
<path d="M303.42 477.48C303.42 474.767 303.86 472.383 304.74 470.33C305.62 468.277 306.757 466.443 308.15 464.83C309.543 463.217 311.01 461.713 312.55 460.32C314.163 458.927 315.667 457.57 317.06 456.25C318.453 454.93 319.59 453.537 320.47 452.07C321.35 450.603 321.79 448.953 321.79 447.12C321.79 444.04 320.543 441.547 318.05 439.64C315.557 437.733 312.22 436.78 308.04 436.78C304.007 436.78 300.487 437.513 297.48 438.98C294.547 440.447 292.09 442.537 290.11 445.25L279.44 438.32C282.52 434.14 286.553 430.877 291.54 428.53C296.527 426.11 302.43 424.9 309.25 424.9C314.603 424.9 319.297 425.707 323.33 427.32C327.363 428.86 330.517 431.133 332.79 434.14C335.063 437.073 336.2 440.667 336.2 444.92C336.2 447.853 335.723 450.42 334.77 452.62C333.89 454.82 332.717 456.763 331.25 458.45C329.857 460.063 328.353 461.603 326.74 463.07C325.127 464.463 323.587 465.857 322.12 467.25C320.727 468.643 319.59 470.147 318.71 471.76C317.83 473.373 317.39 475.28 317.39 477.48H303.42ZM310.46 503.77C307.893 503.77 305.767 502.927 304.08 501.24C302.467 499.553 301.66 497.537 301.66 495.19C301.66 492.843 302.467 490.863 304.08 489.25C305.767 487.563 307.893 486.72 310.46 486.72C313.027 486.72 315.117 487.563 316.73 489.25C318.343 490.863 319.15 492.843 319.15 495.19C319.15 497.537 318.343 499.553 316.73 501.24C315.117 502.927 313.027 503.77 310.46 503.77Z" fill="#E61A1A"/>
</svg>
