<svg width="423" height="228" viewBox="0 0 423 228" fill="none" xmlns="http://www.w3.org/2000/svg">
<g filter="url(#filter0_d_14918_5)">
<rect x="119" width="300" height="220" fill="#F2F2F2"/>
</g>
<path d="M54.4999 28C24.4487 28 0 50.0795 0 77.2189C0 80.2263 0 103.492 0 103.906C0 109.334 4.88973 113.75 10.9 113.75H15.1583C16.6581 117.569 20.6966 120.312 25.4333 120.312C31.4435 120.312 36.3334 115.897 36.3334 110.469V83.7811C36.3334 78.3533 31.4435 73.9375 25.4333 73.9375C20.6966 73.9375 16.6581 76.681 15.1583 80.5H10.9C9.62615 80.5 8.4039 80.7002 7.26666 81.0644V77.2189C7.26666 53.6982 28.4555 34.5625 54.4999 34.5625C80.5444 34.5625 101.733 53.6982 101.733 77.2189V81.0644C100.596 80.7002 99.3736 80.5 98.0999 80.5H93.8417C92.3418 76.681 88.3033 73.9375 83.5666 73.9375C77.5564 73.9375 72.6665 78.3533 72.6665 83.7811V110.469C72.6665 115.897 77.5564 120.312 83.5666 120.312C84.6665 120.312 85.7283 120.163 86.7303 119.888C85.371 123.927 81.2102 126.875 76.2999 126.875H64.7751C63.2752 123.056 59.2366 120.312 54.4999 120.312C48.4897 120.312 43.5998 124.728 43.5998 130.156C43.5998 135.584 48.4897 140 54.4999 140C59.2366 140 63.2752 137.256 64.7751 133.438H76.2999C86.3169 133.438 94.4667 126.078 94.4667 117.031V113.75H98.0999C104.11 113.75 109 109.334 109 103.906C109 103.498 109 80.224 109 77.2189C109 50.0795 84.5512 28 54.4999 28ZM21.8001 83.7811C21.8001 81.9719 23.4299 80.5 25.4333 80.5C27.4367 80.5 29.0665 81.9719 29.0665 83.7811V110.469C29.0665 112.278 27.4367 113.75 25.4333 113.75C23.4299 113.75 21.8001 112.278 21.8001 110.469V83.7811ZM10.9 87.0625H14.5333V107.188H10.9C8.89656 107.188 7.26666 105.716 7.26666 103.906V90.3439C7.26666 88.5344 8.89656 87.0625 10.9 87.0625ZM54.4999 133.438C52.4965 133.438 50.8667 131.966 50.8667 130.156C50.8667 128.347 52.4965 126.875 54.4999 126.875C56.5033 126.875 58.1331 128.347 58.1331 130.156C58.1331 131.966 56.5033 133.438 54.4999 133.438ZM87.1998 110.469C87.1998 112.278 85.57 113.75 83.5666 113.75C81.5632 113.75 79.9334 112.278 79.9334 110.469V83.7811C79.9334 81.9719 81.5632 80.5 83.5666 80.5C85.57 80.5 87.1998 81.9719 87.1998 83.7811V110.469ZM101.733 103.906C101.733 105.716 100.103 107.188 98.0999 107.188H94.4667V87.0625H98.0999C100.103 87.0625 101.733 88.5344 101.733 90.3439V103.906Z" fill="#E61A1A"/>
<defs>
<filter id="filter0_d_14918_5" x="115" y="0" width="308" height="228" filterUnits="userSpaceOnUse" color-interpolation-filters="sRGB">
<feFlood flood-opacity="0" result="BackgroundImageFix"/>
<feColorMatrix in="SourceAlpha" type="matrix" values="0 0 0 0 0 0 0 0 0 0 0 0 0 0 0 0 0 0 127 0" result="hardAlpha"/>
<feOffset dy="4"/>
<feGaussianBlur stdDeviation="2"/>
<feComposite in2="hardAlpha" operator="out"/>
<feColorMatrix type="matrix" values="0 0 0 0 0 0 0 0 0 0 0 0 0 0 0 0 0 0 0.25 0"/>
<feBlend mode="normal" in2="BackgroundImageFix" result="effect1_dropShadow_14918_5"/>
<feBlend mode="normal" in="SourceGraphic" in2="effect1_dropShadow_14918_5" result="shape"/>
</filter>
</defs>
</svg>
